<svg xmlns:xlink="http://www.w3.org/1999/xlink" width="45" height="44" viewBox="0 0 45 44" fill="none" xmlns="http://www.w3.org/2000/svg" id="svg-1195029424_3098">
<g clip-path="url(#svg-1195029424_3098_clip0_1085_72606)" fill="none">
<path d="M37.7487 8.23512C34.9437 6.97012 31.937 6.03512 28.7929 5.50346C28.7649 5.49808 28.7359 5.50154 28.7099 5.51337C28.684 5.52519 28.6624 5.54479 28.648 5.56946C28.263 6.24596 27.834 7.12779 27.5334 7.82446C24.1987 7.32622 20.8085 7.32622 17.4739 7.82446C17.139 7.05237 16.7614 6.29953 16.3427 5.56946C16.3285 5.54449 16.3071 5.52445 16.2812 5.512C16.2553 5.49955 16.2262 5.49529 16.1979 5.49979C13.0555 6.03146 10.0489 6.96646 7.24205 8.23329C7.2179 8.24342 7.19743 8.26069 7.18338 8.28279C1.47805 16.6703 -0.0857855 24.8506 0.682381 32.9283C0.684519 32.9481 0.69066 32.9672 0.70043 32.9846C0.710201 33.0019 0.723397 33.0171 0.739214 33.0291C4.06927 35.4536 7.7835 37.3005 11.7264 38.4925C11.7539 38.5009 11.7833 38.5009 11.8107 38.4924C11.8382 38.4839 11.8625 38.4673 11.8804 38.4448C12.7288 37.3101 13.4807 36.1063 14.128 34.846C14.137 34.8287 14.1422 34.8098 14.1432 34.7904C14.1443 34.771 14.1411 34.7516 14.134 34.7335C14.1268 34.7154 14.1159 34.6991 14.1019 34.6856C14.0879 34.6721 14.0712 34.6618 14.0529 34.6553C12.8686 34.2093 11.721 33.6711 10.6209 33.0456C10.6011 33.0343 10.5845 33.0183 10.5724 32.999C10.5603 32.9797 10.5533 32.9577 10.5518 32.935C10.5504 32.9123 10.5546 32.8896 10.5641 32.8689C10.5736 32.8482 10.588 32.8302 10.6062 32.8165C10.8372 32.646 11.0682 32.4681 11.2882 32.2903C11.308 32.2743 11.3319 32.2641 11.3571 32.2609C11.3824 32.2576 11.408 32.2615 11.4312 32.272C18.6307 35.506 26.4279 35.506 33.543 32.272C33.5663 32.2609 33.5922 32.2565 33.6178 32.2594C33.6434 32.2624 33.6677 32.2724 33.6879 32.2885C33.9079 32.4681 34.1371 32.646 34.3699 32.8165C34.3882 32.8299 34.403 32.8476 34.4127 32.8682C34.4225 32.8887 34.4271 32.9113 34.426 32.934C34.4249 32.9567 34.4182 32.9788 34.4065 32.9983C34.3948 33.0177 34.3784 33.034 34.3589 33.0456C33.2626 33.6763 32.1222 34.2098 30.925 34.6535C30.9067 34.6601 30.8899 34.6707 30.8759 34.6843C30.8619 34.698 30.851 34.7145 30.8439 34.7327C30.8368 34.7509 30.8336 34.7704 30.8347 34.79C30.8357 34.8095 30.8409 34.8286 30.8499 34.846C31.5099 36.1055 32.2652 37.3045 33.0957 38.443C33.113 38.4663 33.137 38.4838 33.1646 38.493C33.1922 38.5022 33.2219 38.5026 33.2497 38.4943C37.1994 37.3056 40.9197 35.4579 44.2534 33.0291C44.2696 33.0178 44.2833 33.003 44.2934 32.986C44.3035 32.9689 44.3099 32.9499 44.312 32.9301C45.2287 23.5911 42.7757 15.4768 37.8055 8.28646C37.7934 8.26309 37.7732 8.24487 37.7487 8.23512ZM15.2042 28.0095C13.0372 28.0095 11.2497 26.0496 11.2497 23.6461C11.2497 21.2408 13.0024 19.2828 15.2042 19.2828C17.4225 19.2828 19.1935 21.2573 19.1587 23.6461C19.1587 26.0515 17.406 28.0095 15.2042 28.0095ZM29.825 28.0095C27.6562 28.0095 25.8705 26.0496 25.8705 23.6461C25.8705 21.2408 27.6214 19.2828 29.825 19.2828C32.0434 19.2828 33.8144 21.2573 33.7795 23.6461C33.7795 26.0515 32.0452 28.0095 29.825 28.0095Z" fill="#FFFFFF"></path>
</g>
<defs>
<clipPath id="svg-1195029424_3098_clip0_1085_72606">
<rect width="44" height="44" fill="white" transform="translate(0.5)"></rect>
</clipPath>
</defs>
</svg>