<svg xmlns:xlink="http://www.w3.org/1999/xlink" xmlns="http://www.w3.org/2000/svg" viewBox="0 0 20 20" fill="currentColor" width="24" height="24" color="var(--token-91814c6a-fba4-4488-93e9-b88667910006, rgb(247, 247, 247)) /* {&quot;name&quot;:&quot;Background white&quot;} */" style="width: 100%; height: 100%;"><path fill-rule="evenodd" d="M3 17a1 1 0 011-1h12a1 1 0 110 2H4a1 1 0 01-1-1zm3.293-7.707a1 1 0 011.414 0L9 10.586V3a1 1 0 112 0v7.586l1.293-1.293a1 1 0 111.414 1.414l-3 3a1 1 0 01-1.414 0l-3-3a1 1 0 010-1.414z" clip-rule="evenodd" fill="#F7F7F7"></path></svg>