<svg xmlns="http://www.w3.org/2000/svg" xmlns:xlink="http://www.w3.org/1999/xlink" style="width: 100%; height: 100%" viewBox="0 0 26 24" preserveAspectRatio="none" width="26" height="24"><defs><svg width="26" height="24" viewBox="0 0 26 24" fill="none" xmlns="http://www.w3.org/2000/svg" id="svg137884403_3420">
<mask id="svg137884403_3420_mask0_1085_72594" style="mask-type:alpha" maskUnits="userSpaceOnUse" x="0" y="0" width="26" height="24" fill="none">
<ellipse cx="12.9999" cy="12" rx="12.6943" ry="12" fill="#C4C4C4"></ellipse>
</mask>
<g mask="url(#svg137884403_3420_mask0_1085_72594)" fill="none">
<path d="M18.5133 7.19388C19.9552 7.19388 21.1241 6.06858 21.1241 4.68044C21.1241 3.2923 19.9552 2.16699 18.5133 2.16699C17.0714 2.16699 15.9025 3.2923 15.9025 4.68044C15.9025 6.06858 17.0714 7.19388 18.5133 7.19388Z" fill="#FFFFFF"></path>
<path d="M20.5419 19.253L15.6703 14.3121C15.6534 14.2946 15.6353 14.2807 15.6184 14.2644C14.8084 13.4684 14.1289 12.5737 12.9629 12.4842C11.4396 12.368 10.0913 13.616 10.0913 13.616L11.751 16.9498L12.8373 16.1364L13.2176 16.5478L18.0892 21.4898C18.242 21.6448 18.425 21.7693 18.6278 21.8562C18.8305 21.943 19.0491 21.9906 19.271 21.9962C19.4928 22.0017 19.7137 21.9651 19.9209 21.8885C20.1281 21.8119 20.3175 21.6968 20.4785 21.5497C20.6395 21.4026 20.7688 21.2264 20.859 21.0312C20.9493 20.836 20.9987 20.6256 21.0045 20.412C21.0102 20.1984 20.9722 19.9858 20.8927 19.7863C20.8131 19.5869 20.6935 19.4044 20.5407 19.2495L20.5419 19.253Z" fill="#FFFFFF"></path>
<path d="M16.1203 7.25433C16.1203 7.25433 15.0556 5.77043 13.5336 5.64029C12.4605 5.54849 11.7001 6.2213 10.8527 6.83949L10.6379 6.99404L6.23699 10.1512C5.87845 10.4103 5.64147 10.7958 5.57821 11.223C5.51494 11.6503 5.63055 12.0842 5.89962 12.4294C6.16869 12.7746 6.56916 13.0027 7.01295 13.0636C7.45674 13.1245 7.90748 13.0132 8.26603 12.7542L13.058 9.29135L13.9597 10.2337L16.1203 7.25433Z" fill="#FFFFFF"></path>
<path d="M13.6396 13.1441C13.3038 12.7761 12.8329 12.5476 12.3258 12.5066C11.8188 12.4657 11.3149 12.6155 10.9201 12.9245L9.21941 14.2736V14.2655L6.99483 16.0259L4.11241 13.0512C3.80669 12.7356 3.38327 12.5498 2.93529 12.5348C2.48732 12.5198 2.05148 12.6767 1.72367 12.971C1.39586 13.2653 1.20293 13.6729 1.18731 14.1042C1.17169 14.5355 1.33466 14.955 1.64039 15.2706L4.85957 18.5917C4.94982 18.6853 5.05156 18.768 5.16254 18.838C5.62894 19.2293 6.20596 19.4777 6.81981 19.5515C7.66474 19.6352 8.5314 19.2831 9.18803 18.9019L9.25321 18.8729L9.28338 18.8508C9.65494 18.6294 10.0045 18.3753 10.3275 18.092L13.4272 15.6936C13.6193 15.5424 13.7777 15.3554 13.8929 15.1439C14.0081 14.9323 14.0777 14.7005 14.0975 14.4624C14.1174 14.2243 14.087 13.9848 14.0083 13.7583C13.9296 13.5317 13.8042 13.3228 13.6396 13.1441Z" fill="#FFFFFF"></path>
<path d="M24.4087 7.37819C24.2647 7.21565 24.0887 7.08202 23.891 6.98494C23.6933 6.88786 23.4776 6.82923 23.2564 6.8124C23.0351 6.79557 22.8126 6.82086 22.6015 6.88684C22.3904 6.95281 22.1948 7.05818 22.026 7.19692L18.8648 9.79519L15.4476 6.49273C15.2667 6.30763 15.0474 6.16127 14.8039 6.06317C14.5604 5.96507 14.2981 5.91743 14.0342 5.92334C13.5478 5.9231 13.0789 6.09802 12.7197 6.41371C12.5354 6.57363 12.3865 6.76775 12.2821 6.98442C12.1776 7.20109 12.1197 7.43585 12.1118 7.67461C12.1039 7.91336 12.1462 8.15119 12.2361 8.37382C12.3261 8.59645 12.4618 8.79928 12.6352 8.97016L15.2618 11.5266C15.2618 11.5266 16.8309 13.3428 18.5703 13.3614C19.1893 13.3545 19.7921 13.1695 20.3012 12.8304C20.4193 12.7732 20.5299 12.7025 20.6307 12.6201L24.2216 9.67202C24.3904 9.53324 24.5291 9.36382 24.6298 9.17343C24.7306 8.98304 24.7913 8.77542 24.8087 8.56241C24.8261 8.3494 24.7997 8.13519 24.7311 7.932C24.6624 7.72881 24.5529 7.54062 24.4087 7.37819Z" fill="#FFFFFF"></path>
</g>
</svg></defs><use href="#svg137884403_3420"></use></svg>