<svg xmlns:xlink="http://www.w3.org/1999/xlink" xmlns="http://www.w3.org/2000/svg" width="149" height="24" viewBox="0 0 149 24" fill="none">
<path d="M36.06 19V11.12H34.22V8.2H36.06V7.7C36.06 6.55333 36.4267 5.72 37.16 5.2C37.8933 4.68 38.9733 4.42 40.4 4.42H42.52V6.92H41C40.6667 6.92 40.4067 6.99333 40.22 7.14C40.0467 7.28667 39.96 7.50667 39.96 7.8V8.2H42.3V11.12H39.96V19H36.06ZM43.67 19V8.2H47.57V19H43.67ZM43.67 6.96V4.42H47.57V6.96H43.67ZM53.9317 19C53.3051 19 52.7584 18.9 52.2917 18.7C51.8251 18.4867 51.4651 18.1733 51.2117 17.76C50.9584 17.3467 50.8317 16.82 50.8317 16.18V11.12H48.8917V8.2H50.8317V5.58L54.6517 4.86V8.2H57.2717V11.12H54.6517V14.9C54.6517 15.2067 54.7184 15.42 54.8517 15.54C54.9984 15.6467 55.2317 15.7 55.5517 15.7H57.2717V19H53.9317ZM58.6505 19V8.2H62.3905L62.5505 9.9H62.7305C63.0771 9.28667 63.5705 8.82 64.2105 8.5C64.8505 8.16667 65.5905 8 66.4305 8C67.3371 8 68.1171 8.18667 68.7705 8.56C69.4371 8.93333 69.9238 9.50667 70.2305 10.28H70.4305C70.8571 9.46667 71.4238 8.88667 72.1305 8.54C72.8371 8.18 73.6438 8 74.5505 8C75.4838 8 76.2838 8.18 76.9505 8.54C77.6171 8.9 78.1238 9.45333 78.4705 10.2C78.8305 10.9467 79.0105 11.9 79.0105 13.06V19H75.1105V13.56C75.1105 13.04 75.0505 12.5867 74.9305 12.2C74.8238 11.8 74.6305 11.4867 74.3505 11.26C74.0705 11.0333 73.6638 10.92 73.1305 10.92C72.6371 10.92 72.2105 11.0267 71.8505 11.24C71.5038 11.4533 71.2371 11.7467 71.0505 12.12C70.8638 12.4933 70.7705 12.9267 70.7705 13.42V19H66.8905V13.56C66.8905 13.04 66.8305 12.5867 66.7105 12.2C66.6038 11.8 66.4038 11.4867 66.1105 11.26C65.8171 11.0333 65.4105 10.92 64.8905 10.92C64.3971 10.92 63.9771 11.0333 63.6305 11.26C63.2838 11.4733 63.0171 11.7667 62.8305 12.14C62.6438 12.5133 62.5505 12.94 62.5505 13.42V19H58.6505ZM80.8575 19V8.2H84.7575V19H80.8575ZM80.8575 6.96V4.42H84.7575V6.96H80.8575ZM86.6192 19V8.2H90.3792L90.5192 9.92H90.6992C91.0326 9.32 91.5526 8.85333 92.2592 8.52C92.9792 8.17333 93.7259 8 94.4992 8C95.2059 8 95.8392 8.08667 96.3992 8.26C96.9726 8.43333 97.4659 8.72 97.8792 9.12C98.2926 9.50667 98.6126 10.0267 98.8392 10.68C99.0659 11.32 99.1792 12.1133 99.1792 13.06V19H95.2792V13.76C95.2792 13.1733 95.2126 12.6733 95.0792 12.26C94.9592 11.8333 94.7392 11.5067 94.4192 11.28C94.1126 11.04 93.6792 10.92 93.1192 10.92C92.5859 10.92 92.1259 11.04 91.7392 11.28C91.3526 11.5067 91.0526 11.8267 90.8392 12.24C90.6259 12.64 90.5192 13.1 90.5192 13.62V19H86.6192ZM104.986 19C104.36 19 103.813 18.9 103.346 18.7C102.88 18.4867 102.52 18.1733 102.266 17.76C102.013 17.3467 101.886 16.82 101.886 16.18V11.12H99.9464V8.2H101.886V5.58L105.706 4.86V8.2H108.326V11.12H105.706V14.9C105.706 15.2067 105.773 15.42 105.906 15.54C106.053 15.6467 106.286 15.7 106.606 15.7H108.326V19H104.986ZM113.605 19V18.38C113.605 17.5933 113.752 16.9 114.045 16.3C114.339 15.6867 114.725 15.1467 115.205 14.68C115.685 14.2133 116.212 13.7933 116.785 13.42C117.372 13.0467 117.952 12.7 118.525 12.38C119.112 12.0467 119.645 11.72 120.125 11.4C120.619 11.0667 121.005 10.72 121.285 10.36C121.579 10 121.725 9.59333 121.725 9.14C121.725 8.74 121.625 8.41333 121.425 8.16C121.239 7.90667 120.999 7.72 120.705 7.6C120.412 7.48 120.112 7.42 119.805 7.42C119.312 7.42 118.892 7.50667 118.545 7.68C118.212 7.85333 117.952 8.1 117.765 8.42C117.592 8.72667 117.479 9.09333 117.425 9.52H113.665C113.772 8.36 114.085 7.40667 114.605 6.66C115.125 5.9 115.832 5.34 116.725 4.98C117.619 4.60667 118.685 4.42 119.925 4.42C121.152 4.42 122.192 4.61333 123.045 5C123.899 5.38667 124.545 5.92667 124.985 6.62C125.439 7.31333 125.665 8.12667 125.665 9.06C125.665 9.67333 125.559 10.2267 125.345 10.72C125.132 11.2 124.845 11.64 124.485 12.04C124.139 12.44 123.745 12.8 123.305 13.12C122.879 13.44 122.432 13.7333 121.965 14C121.512 14.2667 121.072 14.5133 120.645 14.74C120.219 14.9667 119.839 15.1867 119.505 15.4C119.185 15.6133 118.945 15.8267 118.785 16.04H125.685V19H113.605ZM127.18 19V16.02H130.96V19H127.18ZM139.877 19.18C138.757 19.18 137.73 19.02 136.797 18.7C135.877 18.3667 135.083 17.8867 134.417 17.26C133.75 16.62 133.237 15.8467 132.877 14.94C132.53 14.02 132.357 12.9667 132.357 11.78C132.357 10.6067 132.537 9.56667 132.897 8.66C133.257 7.74 133.763 6.96667 134.417 6.34C135.083 5.71333 135.877 5.24 136.797 4.92C137.73 4.58667 138.763 4.42 139.897 4.42C141.03 4.42 142.057 4.58667 142.977 4.92C143.91 5.24 144.71 5.71333 145.377 6.34C146.043 6.96667 146.55 7.74 146.897 8.66C147.257 9.56667 147.437 10.6133 147.437 11.8C147.437 12.9733 147.257 14.02 146.897 14.94C146.537 15.86 146.023 16.6333 145.357 17.26C144.703 17.8867 143.91 18.3667 142.977 18.7C142.057 19.02 141.023 19.18 139.877 19.18ZM139.897 16.04C140.43 16.04 140.917 15.96 141.357 15.8C141.81 15.64 142.197 15.3933 142.517 15.06C142.837 14.7133 143.077 14.2733 143.237 13.74C143.41 13.2067 143.497 12.56 143.497 11.8C143.497 11.04 143.41 10.3933 143.237 9.86C143.077 9.32667 142.837 8.89333 142.517 8.56C142.197 8.21333 141.81 7.96 141.357 7.8C140.917 7.64 140.43 7.56 139.897 7.56C139.35 7.56 138.85 7.64 138.397 7.8C137.957 7.96 137.583 8.21333 137.277 8.56C136.97 8.89333 136.73 9.32667 136.557 9.86C136.383 10.3933 136.297 11.04 136.297 11.8C136.297 12.56 136.377 13.2067 136.537 13.74C136.71 14.2733 136.957 14.7133 137.277 15.06C137.597 15.3933 137.97 15.64 138.397 15.8C138.837 15.96 139.337 16.04 139.897 16.04Z" fill="black"/>
<mask id="mask0_12_59" style="mask-type:alpha" maskUnits="userSpaceOnUse" x="0" y="0" width="24" height="24">
<circle cx="12" cy="12" r="12" fill="#C4C4C4"/>
</mask>
<g mask="url(#mask0_12_59)">
<path d="M17.2118 7.19437C18.5749 7.19437 19.6799 6.06906 19.6799 4.68093C19.6799 3.29279 18.5749 2.16748 17.2118 2.16748C15.8488 2.16748 14.7438 3.29279 14.7438 4.68093C14.7438 6.06906 15.8488 7.19437 17.2118 7.19437Z" fill="#115295"/>
<path d="M19.1293 19.2534L14.5241 14.3125C14.5081 14.2951 14.491 14.2812 14.475 14.2649C13.7094 13.4689 13.067 12.5742 11.9648 12.4847C10.5248 12.3685 9.25024 13.6165 9.25024 13.6165L10.8192 16.9503L11.8461 16.1369L12.2055 16.5483L16.8107 21.4903C16.9551 21.6453 17.1281 21.7698 17.3198 21.8566C17.5115 21.9435 17.7181 21.9911 17.9279 21.9966C18.1376 22.0022 18.3464 21.9656 18.5422 21.889C18.7381 21.8124 18.9172 21.6973 19.0694 21.5502C19.2215 21.4031 19.3437 21.2269 19.4291 21.0317C19.5144 20.8365 19.5611 20.6261 19.5665 20.4125C19.572 20.1989 19.5361 19.9863 19.4609 19.7868C19.3856 19.5873 19.2726 19.4049 19.1281 19.25L19.1293 19.2534Z" fill="#115295"/>
<path d="M14.9495 7.25384C14.9495 7.25384 13.9431 5.76995 12.5043 5.6398C11.4899 5.548 10.7711 6.22081 9.97006 6.839L9.76696 6.99355L5.60677 10.1508C5.26784 10.4098 5.04383 10.7953 4.98402 11.2226C4.92421 11.6498 5.0335 12.0837 5.28785 12.4289C5.54221 12.7741 5.92078 13.0022 6.3403 13.0631C6.75981 13.124 7.18591 13.0127 7.52484 12.7537L12.0547 9.29086L12.9071 10.2333L14.9495 7.25384Z" fill="#115295"/>
<path d="M12.6045 13.1446C12.2871 12.7766 11.8419 12.5481 11.3626 12.5071C10.8833 12.4662 10.407 12.6159 10.0338 12.925L8.42606 14.2741V14.266L6.32315 16.0264L3.59837 13.0517C3.30937 12.7361 2.9091 12.5503 2.48563 12.5353C2.06216 12.5203 1.65016 12.6772 1.34028 12.9715C1.0304 13.2658 0.848012 13.6734 0.833247 14.1047C0.818482 14.536 0.972545 14.9555 1.26155 15.2711L4.30467 18.5922C4.38999 18.6858 4.48616 18.7685 4.59107 18.8385C5.03196 19.2298 5.57742 19.4782 6.1577 19.552C6.95642 19.6357 7.77568 19.2836 8.39639 18.9024L8.45801 18.8734L8.48653 18.8513C8.83777 18.6298 9.16817 18.3758 9.47352 18.0925L12.4037 15.6941C12.5853 15.5429 12.735 15.3559 12.8439 15.1444C12.9528 14.9328 13.0186 14.701 13.0374 14.4629C13.0561 14.2248 13.0275 13.9853 12.9531 13.7588C12.8787 13.5322 12.7601 13.3233 12.6045 13.1446Z" fill="#158ECB"/>
<path d="M22.785 7.37819C22.6488 7.21565 22.4825 7.08202 22.2956 6.98494C22.1087 6.88786 21.9048 6.82923 21.6956 6.8124C21.4865 6.79557 21.2761 6.82086 21.0765 6.88684C20.877 6.95281 20.6921 7.05818 20.5326 7.19692L17.5442 9.79519L14.314 6.49273C14.143 6.30763 13.9356 6.16127 13.7054 6.06317C13.4752 5.96507 13.2273 5.91743 12.9778 5.92334C12.518 5.9231 12.0748 6.09802 11.7352 6.41371C11.561 6.57363 11.4203 6.76775 11.3215 6.98442C11.2228 7.20109 11.168 7.43585 11.1605 7.67461C11.1531 7.91336 11.1931 8.15119 11.2781 8.37382C11.3631 8.59645 11.4915 8.79928 11.6554 8.97016L14.1383 11.5266C14.1383 11.5266 15.6216 13.3428 17.2658 13.3614C17.851 13.3545 18.4208 13.1695 18.902 12.8304C19.0137 12.7732 19.1183 12.7025 19.2135 12.6201L22.6081 9.67202C22.7676 9.53324 22.8987 9.36382 22.994 9.17343C23.0892 8.98304 23.1467 8.77542 23.1631 8.56241C23.1795 8.3494 23.1546 8.13519 23.0897 7.932C23.0248 7.72881 22.9213 7.54062 22.785 7.37819Z" fill="#158ECB"/>
</g>
</svg>