<svg xmlns:xlink="http://www.w3.org/1999/xlink" width="25" height="24" viewBox="0 0 25 24" fill="none" xmlns="http://www.w3.org/2000/svg" class="jsx-d165484a31dfab77"><g clip-path="url(#clip0_15_154)" class="jsx-d165484a31dfab77" fill="none"><path fill-rule="evenodd" clip-rule="evenodd" d="M19.7808 4.43003C20.0279 4.32602 20.2984 4.29015 20.5641 4.32614C20.8298 4.36214 21.081 4.46869 21.2915 4.63471C21.502 4.80073 21.6642 5.02014 21.7612 5.27011C21.8581 5.52008 21.8863 5.79147 21.8428 6.05603L19.5748 19.813C19.3548 21.14 17.8988 21.901 16.6818 21.24C15.6638 20.687 14.1518 19.835 12.7918 18.946C12.1118 18.501 10.0288 17.076 10.2848 16.062C10.5048 15.195 14.0048 11.937 16.0048 10C16.7898 9.23903 16.4318 8.80003 15.5048 9.50003C13.2018 11.238 9.5068 13.881 8.2848 14.625C7.2068 15.281 6.6448 15.393 5.9728 15.281C4.7468 15.077 3.6098 14.761 2.6818 14.376C1.4278 13.856 1.4888 12.132 2.6808 11.63L19.7808 4.43003Z" fill="black" class="jsx-d165484a31dfab77"></path></g><defs class="jsx-d165484a31dfab77"><clipPath id="clip0_15_154" class="jsx-d165484a31dfab77"><rect width="24" height="24" fill="white" transform="translate(0.00390625)" class="jsx-d165484a31dfab77"></rect></clipPath></defs></svg>