<svg xmlns:xlink="http://www.w3.org/1999/xlink" width="45" height="44" viewBox="0 0 45 44" fill="none" xmlns="http://www.w3.org/2000/svg" id="svg-1167542982_1650">
<path d="M22.4983 16.2724C19.3443 16.2724 16.7705 18.8462 16.7705 22.0001C16.7705 25.154 19.3443 27.7278 22.4983 27.7278C25.6522 27.7278 28.226 25.154 28.226 22.0001C28.226 18.8462 25.6522 16.2724 22.4983 16.2724ZM39.6772 22.0001C39.6772 19.6282 39.6986 17.2778 39.5654 14.9103C39.4322 12.1603 38.8049 9.71964 36.794 7.7087C34.7787 5.69347 32.3424 5.07042 29.5924 4.93722C27.2205 4.80401 24.8701 4.8255 22.5025 4.8255C20.1307 4.8255 17.7803 4.80401 15.4127 4.93722C12.6627 5.07042 10.2221 5.69776 8.21114 7.7087C6.19591 9.72393 5.57286 12.1603 5.43966 14.9103C5.30645 17.2821 5.32794 19.6325 5.32794 22.0001C5.32794 24.3677 5.30645 26.7224 5.43966 29.09C5.57286 31.84 6.2002 34.2806 8.21114 36.2915C10.2264 38.3067 12.6627 38.9298 15.4127 39.063C17.7846 39.1962 20.135 39.1747 22.5025 39.1747C24.8744 39.1747 27.2248 39.1962 29.5924 39.063C32.3424 38.9298 34.783 38.3025 36.794 36.2915C38.8092 34.2763 39.4322 31.84 39.5654 29.09C39.7029 26.7224 39.6772 24.372 39.6772 22.0001ZM22.4983 30.813C17.6213 30.813 13.6854 26.8771 13.6854 22.0001C13.6854 17.1232 17.6213 13.1872 22.4983 13.1872C27.3752 13.1872 31.3111 17.1232 31.3111 22.0001C31.3111 26.8771 27.3752 30.813 22.4983 30.813ZM31.6721 14.8845C30.5334 14.8845 29.6139 13.965 29.6139 12.8263C29.6139 11.6876 30.5334 10.7681 31.6721 10.7681C32.8108 10.7681 33.7303 11.6876 33.7303 12.8263C33.7306 13.0967 33.6776 13.3645 33.5743 13.6143C33.471 13.8642 33.3194 14.0912 33.1282 14.2824C32.937 14.4736 32.71 14.6252 32.4601 14.7285C32.2103 14.8318 31.9425 14.8848 31.6721 14.8845Z" fill="#FFFFFF"></path>
</svg>