<svg width="109" height="24" viewBox="0 0 109 24" fill="none" xmlns="http://www.w3.org/2000/svg">
<g clip-path="url(#clip0_229_1227)">
<path d="M36.0602 18.9999V11.1199H34.2202V8.19992H36.0602V7.69992C36.0602 6.55326 36.4269 5.71992 37.1602 5.19992C37.8935 4.67992 38.9735 4.41992 40.4002 4.41992H42.5202V6.91992H41.0002C40.6669 6.91992 40.4069 6.99326 40.2202 7.13992C40.0469 7.28659 39.9602 7.50659 39.9602 7.79992V8.19992H42.3002V11.1199H39.9602V18.9999H36.0602Z" fill="black"/>
<path d="M43.6704 18.9999V8.19992H47.5704V18.9999H43.6704ZM43.6704 6.95992V4.41992H47.5704V6.95992H43.6704Z" fill="black"/>
<path d="M53.9321 18.9999C53.3055 18.9999 52.7588 18.8999 52.2921 18.6999C51.8255 18.4866 51.4655 18.1733 51.2121 17.7599C50.9588 17.3466 50.8321 16.8199 50.8321 16.1799V11.1199H48.8921V8.19992H50.8321V5.57992L54.6521 4.85992V8.19992H57.2721V11.1199H54.6521V14.8999C54.6521 15.2066 54.7188 15.4199 54.8521 15.5399C54.9988 15.6466 55.2321 15.6999 55.5521 15.6999H57.2721V18.9999H53.9321Z" fill="black"/>
<path d="M58.6509 18.9999V8.19991H62.3909L62.5509 9.89991H62.7309C63.0776 9.28658 63.5709 8.81991 64.2109 8.49991C64.8509 8.16658 65.5909 7.99991 66.4309 7.99991C67.3375 7.99991 68.1175 8.18658 68.7709 8.55991C69.4376 8.93325 69.9242 9.50658 70.2309 10.2799H70.4309C70.8575 9.46658 71.4242 8.88658 72.1309 8.53991C72.8376 8.17991 73.6442 7.99991 74.5509 7.99991C75.4842 7.99991 76.2842 8.17991 76.9509 8.53991C77.6176 8.89991 78.1242 9.45325 78.4709 10.1999C78.8309 10.9466 79.0109 11.8999 79.0109 13.0599V18.9999H75.1109V13.5599C75.1109 13.0399 75.0509 12.5866 74.9309 12.1999C74.8242 11.7999 74.6309 11.4866 74.3509 11.2599C74.0709 11.0333 73.6642 10.9199 73.1309 10.9199C72.6376 10.9199 72.2109 11.0266 71.8509 11.2399C71.5042 11.4533 71.2375 11.7466 71.0509 12.1199C70.8642 12.4933 70.7709 12.9266 70.7709 13.4199V18.9999H66.8909V13.5599C66.8909 13.0399 66.8309 12.5866 66.7109 12.1999C66.6042 11.7999 66.4042 11.4866 66.1109 11.2599C65.8175 11.0333 65.4109 10.9199 64.8909 10.9199C64.3976 10.9199 63.9776 11.0333 63.6309 11.2599C63.2842 11.4733 63.0176 11.7666 62.8309 12.1399C62.6442 12.5133 62.5509 12.9399 62.5509 13.4199V18.9999H58.6509Z" fill="black"/>
<path d="M80.8579 18.9999V8.19992H84.7579V18.9999H80.8579ZM80.8579 6.95992V4.41992H84.7579V6.95992H80.8579Z" fill="black"/>
<path d="M86.6196 18.9999V8.19991H90.3796L90.5196 9.91991H90.6996C91.033 9.31991 91.553 8.85325 92.2596 8.51991C92.9796 8.17325 93.7263 7.99991 94.4996 7.99991C95.2063 7.99991 95.8396 8.08658 96.3996 8.25991C96.973 8.43325 97.4663 8.71991 97.8796 9.11991C98.293 9.50658 98.613 10.0266 98.8396 10.6799C99.0663 11.3199 99.1796 12.1133 99.1796 13.0599V18.9999H95.2796V13.7599C95.2796 13.1733 95.213 12.6733 95.0796 12.2599C94.9596 11.8333 94.7396 11.5066 94.4196 11.2799C94.113 11.0399 93.6796 10.9199 93.1196 10.9199C92.5863 10.9199 92.1263 11.0399 91.7396 11.2799C91.353 11.5066 91.053 11.8266 90.8396 12.2399C90.6263 12.6399 90.5196 13.0999 90.5196 13.6199V18.9999H86.6196Z" fill="black"/>
<path d="M104.987 18.9999C104.36 18.9999 103.813 18.8999 103.347 18.6999C102.88 18.4866 102.52 18.1733 102.267 17.7599C102.013 17.3466 101.887 16.8199 101.887 16.1799V11.1199H99.9468V8.19992H101.887V5.57992L105.707 4.85992V8.19992H108.327V11.1199H105.707V14.8999C105.707 15.2066 105.773 15.4199 105.907 15.5399C106.053 15.6466 106.287 15.6999 106.607 15.6999H108.327V18.9999H104.987Z" fill="black"/>
<mask id="mask0_229_1227" style="mask-type:alpha" maskUnits="userSpaceOnUse" x="0" y="0" width="24" height="24">
<path d="M12 24C18.6274 24 24 18.6274 24 12C24 5.37258 18.6274 0 12 0C5.37258 0 0 5.37258 0 12C0 18.6274 5.37258 24 12 24Z" fill="black"/>
</mask>
<g mask="url(#mask0_229_1227)">
<path d="M17.2122 7.19486C18.5752 7.19486 19.6802 6.06955 19.6802 4.68141C19.6802 3.29328 18.5752 2.16797 17.2122 2.16797C15.8491 2.16797 14.7441 3.29328 14.7441 4.68141C14.7441 6.06955 15.8491 7.19486 17.2122 7.19486Z" fill="black"/>
<path d="M19.129 19.2539L14.5238 14.313C14.5079 14.2956 14.4907 14.2817 14.4748 14.2654C13.7091 13.4694 13.0667 12.5747 11.9645 12.4852C10.5245 12.369 9.25 13.617 9.25 13.617L10.8189 16.9508L11.8458 16.1374L12.2053 16.5488L16.8105 21.4908C16.9549 21.6458 17.1279 21.7703 17.3196 21.8571C17.5113 21.944 17.7179 21.9916 17.9276 21.9971C18.1373 22.0027 18.3461 21.9661 18.542 21.8895C18.7378 21.8129 18.917 21.6978 19.0691 21.5507C19.2213 21.4036 19.3435 21.2274 19.4288 21.0322C19.5141 20.837 19.5608 20.6265 19.5663 20.4129C19.5717 20.1994 19.5358 19.9868 19.4606 19.7873C19.3854 19.5878 19.2723 19.4054 19.1279 19.2504L19.129 19.2539Z" fill="black"/>
<path d="M14.9493 7.25433C14.9493 7.25433 13.9429 5.77043 12.504 5.64029C11.4897 5.54849 10.7708 6.2213 9.96982 6.83949L9.76672 6.99404L5.60653 10.1512C5.26759 10.4103 5.04358 10.7958 4.98377 11.223C4.92397 11.6503 5.03326 12.0842 5.28761 12.4294C5.54196 12.7746 5.92054 13.0027 6.34005 13.0636C6.75957 13.1245 7.18566 13.0132 7.52459 12.7542L12.0545 9.29135L12.9068 10.2337L14.9493 7.25433Z" fill="black"/>
<path d="M12.6043 13.1451C12.2868 12.7771 11.8417 12.5486 11.3624 12.5076C10.883 12.4667 10.4067 12.6164 10.0335 12.9255L8.42582 14.2746V14.2665L6.3229 16.0269L3.59813 13.0521C3.30913 12.7366 2.90886 12.5508 2.48539 12.5358C2.06191 12.5207 1.64992 12.6776 1.34003 12.972C1.03015 13.2663 0.847767 13.6739 0.833003 14.1052C0.818238 14.5364 0.972301 14.956 1.2613 15.2716L4.30442 18.5926C4.38974 18.6863 4.48591 18.769 4.59082 18.839C5.03171 19.2302 5.57718 19.4787 6.15745 19.5525C6.95617 19.6361 7.77543 19.284 8.39615 18.9029L8.45776 18.8739L8.48629 18.8518C8.83752 18.6303 9.16792 18.3763 9.47328 18.093L12.4034 15.6946C12.585 15.5434 12.7348 15.3564 12.8437 15.1449C12.9526 14.9333 13.0184 14.7015 13.0371 14.4634C13.0559 14.2253 13.0272 13.9858 12.9528 13.7593C12.8784 13.5327 12.7599 13.3238 12.6043 13.1451Z" fill="black"/>
<path d="M22.7845 7.37819C22.6483 7.21565 22.482 7.08202 22.2951 6.98494C22.1082 6.88786 21.9043 6.82923 21.6952 6.8124C21.486 6.79557 21.2756 6.82086 21.0761 6.88684C20.8765 6.95281 20.6917 7.05818 20.5321 7.19692L17.5437 9.79519L14.3135 6.49273C14.1425 6.30763 13.9351 6.16127 13.7049 6.06317C13.4747 5.96507 13.2268 5.91743 12.9773 5.92334C12.5176 5.9231 12.0743 6.09802 11.7348 6.41371C11.5605 6.57363 11.4198 6.76775 11.321 6.98442C11.2223 7.20109 11.1675 7.43585 11.1601 7.67461C11.1526 7.91336 11.1926 8.15119 11.2776 8.37382C11.3627 8.59645 11.491 8.79928 11.6549 8.97016L14.1378 11.5266C14.1378 11.5266 15.6211 13.3428 17.2653 13.3614C17.8505 13.3545 18.4203 13.1695 18.9016 12.8304C19.0132 12.7732 19.1178 12.7025 19.2131 12.6201L22.6076 9.67202C22.7671 9.53324 22.8983 9.36382 22.9935 9.17343C23.0887 8.98304 23.1462 8.77542 23.1626 8.56241C23.179 8.3494 23.1541 8.13519 23.0892 7.932C23.0243 7.72881 22.9208 7.54062 22.7845 7.37819Z" fill="black"/>
</g>
</g>
<defs>
<clipPath id="clip0_229_1227">
<rect width="109" height="24" fill="white"/>
</clipPath>
</defs>
</svg>
