<svg xmlns:xlink="http://www.w3.org/1999/xlink" xmlns="http://www.w3.org/2000/svg" width="2161" height="798" fill="none"><path fill="#2C2C2D" d="m506.125 446.654-49.708 24.214 19.299 16.644 32.746-22.394-2.337-18.464zm98.852 56.858 30.408-14.721 4.094 28.804-25.731 10.88-8.771-24.963z"/><path fill="url(#a)" d="m294.876 322.002 179.681 155.906 31.581-31.255 75.436 27.396 36.839 35.864 16.959-21.122 427.468 308.652H178.661l74.851-397.407 41.364-78.034z"/><path fill="url(#b)" d="m437.452 474.05 109.616 122.277h-167.83s23.974-94.095 24.562-96.016c.584-1.92 33.656-26.264 33.656-26.264l-.004.003z"/><path fill="#2C2C2D" d="m219.901 388.773 24.827 11.263-24.827 6.179v-17.442zm-110.227 63.555 28.641 11.496-20.465 14.084-8.176-25.58z"/><path fill="url(#c)" d="M878.418 797.444 701.296 648.853l-39.686-4.259-94.072-36.202-16.905-15.284-55.122-10.459 3.675-34.592-58.796 10.459-2.939-84.469-89.664 8.044-14.7-23.331s-20.58 2.413-28.663-7.24c-8.084-9.653 5.144-51.486 5.144-51.486H280.17l22.784-24.939L294.871 322l-64.675 76.425-10.288-9.653-97.746 78.035-12.493-14.481L.161 522.317 0 522.273v275.171h878.418z"/><path fill="url(#d)" d="m230.2 398.426-10.288-9.653-87.749 89.134L0 613.218v130.706l230.2-345.498z"/><path fill="url(#e)" d="m122.165 466.809-12.496-14.481L.165 522.316l-.165.139v69.449l122.165-125.095z"/><path fill="url(#f)" d="m347.791 482.092-14.697-23.33L0 731.254v66.189h118.771l229.02-315.351z"/><path fill="url(#g)" d="m440.406 558.518 58.796-10.459-3.674 34.592S346.363 800.004 346.363 797.443c0-2.561-210.965.024-210.965.024l305.008-238.949z"/><path fill="url(#h)" d="m550.633 593.109 16.902 15.284 3.638 189.073-112.386-.024 91.846-204.333z"/><path fill="url(#i)" d="M98.098 606.078a.34.34 0 0 1-.099-.03.041.041 0 0 0-.007-.019c.036.013.064.043.106.049z"/><path fill="url(#j)" d="M190.776 588.871a.346.346 0 0 1-.099-.03.037.037 0 0 0-.007-.019c.036.013.064.043.106.049z"/><path fill="url(#k)" d="M157.273 594.592a.654.654 0 0 1 .18.12.687.687 0 0 1-.18-.12z"/><path fill="url(#l)" d="M500.801 524.652a.67.67 0 0 1 .179.12.667.667 0 0 1-.179-.12z"/><path fill="url(#m)" d="M256.926 545.641c.247.009.582.053 1.02.145-.435.047-.762-.024-1.02-.145z"/><path fill="url(#n)" d="M282.073 523.402c.248.009.583.054 1.021.146-.435.047-.762-.024-1.021-.146z"/><path fill="url(#o)" d="M66.303 606.686c.239.077.553.208.962.417-.434-.072-.737-.23-.962-.417z"/><path fill="url(#p)" d="M106.612 605.322c.076.031.083.019 0 0z"/><path fill="url(#q)" d="M105.987 605.359c.076.031.084.019 0 0z"/><path fill="url(#r)" d="M310.431 500.533c.239.078.553.209.961.417-.433-.071-.737-.229-.961-.417z"/><path fill="url(#s)" d="M374.827 475.139c.188.05.42.125.706.226a2.946 2.946 0 0 1-.706-.226z"/><path fill="url(#t)" d="M345.119 480.232c.239.078.553.209.961.418-.433-.072-.737-.23-.961-.418z"/><path fill="url(#u)" d="M405.172 469.494c.13.051.291.125.486.227a1.564 1.564 0 0 1-.486-.227z"/><path fill="url(#v)" d="M384.523 474.588c.166.077.384.209.67.417a1.195 1.195 0 0 1-.67-.417z"/><path fill="url(#w)" d="M405.641 474.391c.062.055.069.042 0 0z"/><path fill="url(#x)" d="M404.732 469.531c.13.051.292.125.486.227a1.586 1.586 0 0 1-.486-.227z"/><path fill="url(#y)" d="M434.409 483.654c.119.075.267.179.44.319a1.61 1.61 0 0 1-.44-.319z"/><path fill="url(#z)" d="M434.043 488.562c.051.068.058.058 0 0z"/><path fill="url(#A)" d="M433.963 483.607c.119.075.267.179.44.319a1.626 1.626 0 0 1-.44-.319z"/><path fill="url(#B)" d="M529.304 542.92a1.141 1.141 0 0 1-.724.289c.311-.152.55-.244.724-.289z"/><path fill="url(#C)" d="M600.088 595.777a1.137 1.137 0 0 1-.725.289c.312-.152.551-.244.725-.289z"/><path fill="url(#D)" d="M548.472 553.104c.219-.021.392-.03.532-.027-.158.036-.331.05-.532.027z"/><path fill="url(#E)" d="M565.828 565.87c.333-.087.583-.129.764-.138-.207.12-.456.185-.764.138z"/><path fill="url(#F)" d="M546.918 557.467c-.081.009-.077.025 0 0z"/><path fill="url(#G)" d="M548.865 553.309c.22-.021.392-.03.533-.027a1.536 1.536 0 0 1-.533.027z"/><path fill="url(#H)" d="M618.393 602.795c.219-.021.392-.03.532-.027a1.53 1.53 0 0 1-.532.027z"/><path fill="url(#I)" d="M616.85 607.162c-.081.009-.077.025 0 0z"/><path fill="url(#J)" d="M618.797 603c.219-.021.392-.03.532-.027a1.53 1.53 0 0 1-.532.027z"/><path fill="url(#K)" d="M178.015 593.723c.239.077.553.208.962.417-.434-.072-.738-.23-.962-.417z"/><path fill="url(#L)" d="M447.524 494.816c.189.051.421.126.707.227a2.939 2.939 0 0 1-.707-.227z"/><path fill="url(#M)" d="M458.158 498.545c.077.031.084.018 0 0z"/><path fill="url(#N)" d="M448.719 499.783c.023.028.05.055.073.085a.195.195 0 0 1-.073-.085z"/><path fill="url(#O)" d="M448.229 499.709c.084.052.094.04 0 0z"/><path fill="url(#P)" d="M446.904 494.854c.188.05.42.125.706.226a2.961 2.961 0 0 1-.706-.226z"/><path fill="url(#Q)" d="M457.517 498.58c.076.031.083.018 0 0z"/><path fill="url(#R)" d="M461.027 503.488c.188.051.42.125.706.227a2.915 2.915 0 0 1-.706-.227z"/><path fill="url(#S)" d="M460.385 503.525c.189.051.42.126.707.227a2.939 2.939 0 0 1-.707-.227z"/><path fill="url(#T)" d="M475.975 512.578c.188.051.42.125.706.227a2.915 2.915 0 0 1-.706-.227z"/><path fill="url(#U)" d="M486.602 516.307c.076.03.084.018 0 0z"/><path fill="url(#V)" d="M477.152 517.545c.024.027.05.055.073.085a.181.181 0 0 1-.073-.085z"/><path fill="url(#W)" d="M476.664 517.475c.084.051.094.039 0 0z"/><path fill="url(#X)" d="M475.337 512.615c.188.051.42.125.706.227a2.93 2.93 0 0 1-.706-.227z"/><path fill="url(#Y)" d="M485.943 516.344c.077.03.084.018 0 0z"/><path fill="url(#Z)" d="M580.216 579.869c.188.051.42.125.706.227a2.915 2.915 0 0 1-.706-.227z"/><path fill="url(#aa)" d="M590.826 583.598c.077.03.084.018 0 0z"/><path fill="url(#ab)" d="M581.391 584.836c.023.027.05.055.073.085a.2.2 0 0 1-.073-.085z"/><path fill="url(#ac)" d="M580.905 584.764c.084.051.094.039 0 0z"/><path fill="url(#ad)" d="M590.2 583.635c.076.03.083.018 0 0z"/><path fill="url(#ae)" d="M511.588 525.902c.177.09.391.212.648.373a2.952 2.952 0 0 1-.648-.373z"/><path fill="url(#af)" d="M521.284 531.83c.069.048.08.035 0 0z"/><path fill="url(#ag)" d="M511.811 531.021c.02.033.037.066.06.099a.227.227 0 0 1-.06-.099z"/><path fill="url(#ah)" d="M511.361 530.846c.079.073.093.064 0 0z"/><path fill="url(#ai)" d="M510.957 525.805c.178.089.391.211.648.372a2.86 2.86 0 0 1-.648-.372z"/><path fill="url(#aj)" d="M520.655 531.732c.069.049.08.036 0 0z"/><path fill="url(#ak)" d="M53.053 609.346c.123.056.274.134.457.244a1.572 1.572 0 0 1-.457-.244z"/><path fill="url(#al)" d="M52.643 609.367c.123.057.274.134.457.245a1.573 1.573 0 0 1-.457-.245z"/><path fill="url(#am)" d="M197.212 602.748a6.592 6.592 0 0 0-.503.158c.198-.036.367-.092.503-.158z"/><path fill="url(#an)" d="M218.561 606.26a4.943 4.943 0 0 0-.692.289c.315-.048.532-.158.692-.289z"/><path fill="url(#ao)" d="M175.383 598.857a3.969 3.969 0 0 0-.35.16 1.04 1.04 0 0 0 .35-.16z"/><path fill="url(#ap)" d="M190.217 602.373a3.206 3.206 0 0 0-.478.289.857.857 0 0 0 .478-.289z"/><path fill="url(#aq)" d="M175.036 602.232c-.036.024-.034.032 0 0z"/><path fill="url(#ar)" d="M175.701 598.883c-.094.036-.21.087-.35.159.14-.036.256-.093.35-.159z"/><path fill="url(#as)" d="M128.642 560.896a2.611 2.611 0 0 0-.265.186.931.931 0 0 0 .265-.186z"/><path fill="url(#at)" d="M154.659 608.588a2.804 2.804 0 0 0-.317.223c.129-.064.234-.139.317-.223z"/><path fill="#EDF2FF" d="M388.725 497.603c-8.254-8.226-14.622-15.07-17.336-18.396-6.549-8.031-16.137 1.313-25.945 3.286C316.653 513.567 284 572.279 284 572.279c78.679-89.901 101.279-77.633 104.725-74.677v.001zM123.27 466.844S72.063 515.7 54.5 536.499c0 0 23.526-44.94 63-74.998 0 0 1 2.284 5.77 5.343zm505.914 29.498s63.888 33 83.947 51.176c0 0-34.379-34.52-77.335-58.829 0 0-.794.714-6.612 7.653z"/><path fill="#2C2C2D" d="m1654.88 446.654 49.7 24.214-19.3 16.644-32.74-22.394 2.34-18.464zm-98.86 56.858-30.41-14.721-4.09 28.804 25.73 10.88 8.77-24.963z"/><path fill="url(#au)" d="m1866.12 322.002-179.68 155.906-31.58-31.255-75.43 27.396-36.84 35.864-16.96-21.122-427.47 308.652h884.18l-74.85-397.407-41.37-78.034z"/><path fill="url(#av)" d="m1723.55 474.05-109.62 122.277h167.83s-23.97-94.095-24.56-96.016c-.58-1.92-33.66-26.264-33.66-26.264l.01.003z"/><path fill="#2C2C2D" d="m1941.1 388.773-24.83 11.263 24.83 6.179v-17.442zm110.23 63.555-28.65 11.496 20.47 14.084 8.18-25.58z"/><path fill="url(#aw)" d="m1282.58 797.444 177.12-148.591 39.69-4.259 94.07-36.202 16.91-15.284 55.12-10.459-3.68-34.592 58.8 10.459 2.94-84.469 89.66 8.044 14.7-23.331s20.58 2.413 28.67-7.24c8.08-9.653-5.15-51.486-5.15-51.486h29.4l-22.78-24.939 8.08-53.095 64.67 76.425 10.29-9.653 97.75 78.035 12.49-14.481 109.51 69.991.16-.044v275.171h-878.42z"/><path fill="url(#ax)" d="m1930.8 398.426 10.29-9.653 87.75 89.134L2161 613.218v130.706l-230.2-345.498z"/><path fill="url(#ay)" d="m2038.83 466.809 12.5-14.481 109.51 69.988.16.139v69.449l-122.17-125.095z"/><path fill="url(#az)" d="m1793 509 34.91-50.238L2161 731.254v66.188h-118.77L1793 509z"/><path fill="url(#aA)" d="m1720.59 558.518-58.79-10.459 3.67 34.592s149.17 217.353 149.17 214.792c0-2.561 210.96.024 210.96.024l-305.01-238.949z"/><path fill="url(#aB)" d="m1610.37 593.109-16.91 15.284-3.63 189.073 112.38-.024-91.84-204.333z"/><path fill="url(#aC)" d="M2062.9 606.078a.318.318 0 0 0 .1-.03c0-.006 0-.013.01-.019-.04.013-.07.043-.11.049z"/><path fill="url(#aD)" d="M1970.22 588.871a.255.255 0 0 0 .1-.03c0-.006.01-.013.01-.019-.04.013-.06.043-.11.049z"/><path fill="url(#aE)" d="M2003.73 594.592a.573.573 0 0 0-.18.12.801.801 0 0 0 .18-.12z"/><path fill="url(#aF)" d="M1660.2 524.652a.59.59 0 0 0-.18.12.801.801 0 0 0 .18-.12z"/><path fill="url(#aG)" d="M1904.07 545.641c-.24.009-.58.053-1.02.145.44.047.77-.024 1.02-.145z"/><path fill="url(#aH)" d="M1878.93 523.402c-.25.009-.59.054-1.02.146.43.047.76-.024 1.02-.146z"/><path fill="url(#aI)" d="M2094.7 606.686c-.24.077-.56.208-.97.417.44-.072.74-.23.97-.417z"/><path fill="url(#aJ)" d="M2054.39 605.322c-.08.031-.09.019 0 0z"/><path fill="url(#aK)" d="M2055.01 605.359c-.07.031-.08.019 0 0z"/><path fill="url(#aL)" d="M1850.57 500.533c-.24.078-.55.209-.96.417.43-.071.73-.229.96-.417z"/><path fill="url(#aM)" d="M1786.17 475.139c-.19.05-.42.125-.7.226.28-.053.51-.134.7-.226z"/><path fill="url(#aN)" d="M1815.88 480.232a6.85 6.85 0 0 0-.96.418c.43-.072.74-.23.96-.418z"/><path fill="url(#aO)" d="M1755.83 469.494c-.13.051-.29.125-.49.227.2-.054.36-.134.49-.227z"/><path fill="url(#aP)" d="M1776.48 474.588c-.17.077-.39.209-.67.417.3-.071.51-.229.67-.417z"/><path fill="url(#aQ)" d="M1755.36 474.391c-.06.055-.07.042 0 0z"/><path fill="url(#aR)" d="M1756.27 469.531c-.13.051-.29.125-.49.227.2-.054.35-.134.49-.227z"/><path fill="url(#aS)" d="M1726.59 483.654c-.12.075-.27.179-.44.319.18-.092.33-.199.44-.319z"/><path fill="url(#aT)" d="M1726.96 488.562c-.05.068-.06.058 0 0z"/><path fill="url(#aU)" d="M1727.04 483.607c-.12.075-.27.179-.44.319.18-.092.32-.199.44-.319z"/><path fill="url(#aV)" d="M1631.7 542.92c.18.158.41.277.72.289a4.15 4.15 0 0 0-.72-.289z"/><path fill="url(#aW)" d="M1560.91 595.777c.18.158.42.278.73.289a3.896 3.896 0 0 0-.73-.289z"/><path fill="url(#aX)" d="M1612.53 553.104a4.66 4.66 0 0 0-.53-.027c.15.036.33.05.53.027z"/><path fill="url(#aY)" d="M1595.17 565.87a3.894 3.894 0 0 0-.76-.138c.2.12.45.185.76.138z"/><path fill="url(#aZ)" d="M1614.08 557.467c.08.009.08.025 0 0z"/><path fill="url(#ba)" d="M1612.13 553.309c-.21-.021-.39-.03-.53-.027.16.036.33.051.53.027z"/><path fill="url(#bb)" d="M1542.61 602.795a4.82 4.82 0 0 0-.54-.027c.16.036.34.051.54.027z"/><path fill="url(#bc)" d="M1544.15 607.162c.08.009.08.025 0 0z"/><path fill="url(#bd)" d="M1542.2 603a4.66 4.66 0 0 0-.53-.027c.16.036.33.051.53.027z"/><path fill="url(#be)" d="M1982.98 593.723c-.23.077-.55.208-.96.417.44-.072.74-.23.96-.417z"/><path fill="url(#bf)" d="M1713.48 494.816c-.19.051-.42.126-.71.227.28-.054.51-.134.71-.227z"/><path fill="url(#bg)" d="M1702.84 498.545c-.07.031-.08.018 0 0z"/><path fill="url(#bh)" d="M1712.28 499.783c-.02.028-.05.055-.07.085.04-.03.06-.057.07-.085z"/><path fill="url(#bi)" d="M1712.77 499.709c-.08.052-.09.04 0 0z"/><path fill="url(#bj)" d="M1714.1 494.854c-.19.05-.42.125-.71.226.28-.054.51-.134.71-.226z"/><path fill="url(#bk)" d="M1703.48 498.58c-.07.031-.08.018 0 0z"/><path fill="url(#bl)" d="M1699.97 503.488a8.61 8.61 0 0 0-.7.227c.28-.054.51-.134.7-.227z"/><path fill="url(#bm)" d="M1700.61 503.525c-.18.051-.42.126-.7.227.28-.054.51-.134.7-.227z"/><path fill="url(#bn)" d="M1685.03 512.578c-.19.051-.42.125-.71.227.28-.054.51-.134.71-.227z"/><path fill="url(#bo)" d="M1674.4 516.307c-.08.03-.09.018 0 0z"/><path fill="url(#bp)" d="M1683.85 517.545c-.03.027-.05.055-.08.085.05-.03.07-.058.08-.085z"/><path fill="url(#bq)" d="M1684.34 517.475c-.09.051-.1.039 0 0z"/><path fill="url(#br)" d="M1685.66 512.615a8.61 8.61 0 0 0-.7.227c.28-.054.51-.134.7-.227z"/><path fill="url(#bs)" d="M1675.06 516.344c-.08.03-.09.018 0 0z"/><path fill="url(#bt)" d="M1580.78 579.869c-.18.051-.42.125-.7.227.28-.054.51-.134.7-.227z"/><path fill="url(#bu)" d="M1570.17 583.598c-.07.03-.08.018 0 0z"/><path fill="url(#bv)" d="M1579.61 584.836c-.02.027-.05.055-.07.085a.19.19 0 0 0 .07-.085z"/><path fill="url(#bw)" d="M1580.09 584.764c-.08.051-.09.039 0 0z"/><path fill="url(#bx)" d="M1570.8 583.635c-.08.03-.08.018 0 0z"/><path fill="url(#by)" d="M1649.41 525.902c-.18.09-.39.212-.65.373.27-.113.48-.239.65-.373z"/><path fill="url(#bz)" d="M1639.72 531.83c-.07.048-.08.035 0 0z"/><path fill="url(#bA)" d="m1649.19 531.021-.06.099c.04-.039.05-.072.06-.099z"/><path fill="url(#bB)" d="M1649.64 530.846c-.08.073-.09.064 0 0z"/><path fill="url(#bC)" d="M1650.04 525.805c-.17.089-.39.211-.65.372.27-.113.48-.238.65-.372z"/><path fill="url(#bD)" d="M1640.35 531.732c-.07.049-.09.036 0 0z"/><path fill="url(#bE)" d="M2107.95 609.346a3.69 3.69 0 0 0-.46.244c.18-.062.33-.146.46-.244z"/><path fill="url(#bF)" d="M2108.36 609.367c-.13.057-.28.134-.46.245.18-.063.33-.146.46-.245z"/><path fill="url(#bG)" d="M1963.79 602.748c.13.036.3.087.5.158-.2-.036-.37-.092-.5-.158z"/><path fill="url(#bH)" d="M1942.44 606.26c.17.053.4.146.69.289a1.397 1.397 0 0 1-.69-.289z"/><path fill="url(#bI)" d="M1985.62 598.857c.09.037.21.088.35.16a1.013 1.013 0 0 1-.35-.16z"/><path fill="url(#bJ)" d="M1970.78 602.373c.12.054.28.146.48.289a.873.873 0 0 1-.48-.289z"/><path fill="url(#bK)" d="M1985.96 602.232c.04.024.04.032 0 0z"/><path fill="url(#bL)" d="M1985.3 598.883c.09.036.21.087.35.159a1.031 1.031 0 0 1-.35-.159z"/><path fill="url(#bM)" d="M2032.36 560.896c.07.043.16.103.26.186a.903.903 0 0 1-.26-.186z"/><path fill="url(#bN)" d="M2006.34 608.588c.09.051.19.123.32.223a1.132 1.132 0 0 1-.32-.223z"/><path fill="#EDF2FF" d="M1841 343.603c8.25-8.226 14.62-15.07 17.34-18.396 6.55-8.031 16.13 1.313 25.94 3.286 28.79 31.074 61.45 89.786 61.45 89.786-78.68-89.901-101.28-77.633-104.73-74.677v.001zm198 122.898s52.07 43.519 69.64 64.319c0 0-24.17-41.261-63.64-71.32 0 0-1.5 2.501-6 7.001zm-507.18 29.841s-63.89 33-83.95 51.176c0 0 34.38-34.52 77.33-58.829 0 0 .8.714 6.62 7.653z"/><path fill="url(#bO)" d="m1561.84 391-195.13 132.805-34.3-26.623-81.92 23.335-40.01 30.55-18.42-17.992L727.817 796h960.233l-81.28-338.529L1561.84 391z"/><path fill="url(#bP)" d="m2091.57 661.69-183.22-106.218-28.67 6.166-118.7-59.619-13.54 12.335-105.95-66.474-11.15 8.223L1560.23 391l-8.76 45.228 24.69 21.243h-31.86s14.34 35.634 5.58 43.857c-8.77 8.222-31.07 6.166-31.07 6.166l-15.94 19.872-97.18-6.851-3.19 71.954-63.73-8.908 3.99 29.468-59.75 8.908-18.32 13.021-101.97 30.836-43.01 3.628L927.723 796H2134V683.298l-42.43-21.614v.006z"/><path fill="#2C2C2D" d="m359 539 1333 16.987V796H178l181-257z"/><path fill="#F4EEED" d="m1073.17 337.633 35.47 12.674-13.77 8.711-23.37-11.72 1.67-9.665zm-70.32 31.153-22.81-7.516-3.07 14.705 19.302 5.555 6.578-12.744z"/><path fill="url(#bQ)" d="m1214.66 339.883-53.13 39.059 45.87 7.089 28.41-39.921-21.15-6.227z"/><path fill="url(#bR)" d="m1122.41 353.391-77.92 67.533h119.29s-17.04-51.968-17.45-53.029c-.42-1.06-23.93-14.504-23.93-14.504h.01z"/><path fill="#2C2C2D" d="m1278.57 334.256-18 6.541 18 3.589v-10.13zm78.78 31.515-21.38 6.073 15.28 7.434 6.1-13.507zm96.79 32.737-38.27-1.221 19.13 13.507 19.14-6.754v-5.532z"/><g opacity=".5"><path fill="url(#bS)" d="m1197.32 343.855-10.5 13.036 163.58 176.215h142.61l-295.69-189.251z" opacity=".5"/><path fill="url(#bT)" d="m1120.68 399.593-42-5.843 2.63 19.33s106.53 121.455 106.53 120.024c0-1.431 150.68.013 150.68.013l-217.84-133.522v-.002z" opacity=".5"/><path fill="url(#bU)" d="m1041.95 418.922-12.08 8.541-2.6 105.652 80.28-.013-65.6-114.18z" opacity=".5"/></g><path fill="#B77E6D" d="M918.869 234.197c-.266-.392-.535-.769-.795-1.161-.255-.392-.501-.799-.75-1.206a46.265 46.265 0 0 0 2.251 3.377c-.24-.317-.471-.663-.706-.995v-.015zm14.211 1.01zm-173.291-7.899c.374-.387.746-.755 1.104-1.102 0-.001 0-.002.002-.003a49.8 49.8 0 0 0-1.106 1.105zm-1.145 4.522a137.469 137.469 0 0 0-2.251 3.377c.74-1.128 1.495-2.256 2.251-3.377zm1.126-4.501z"/><path fill="#B77E6D" d="M756.393 235.207c.74-1.128 1.48-2.249 2.251-3.377-.771 1.121-1.511 2.249-2.251 3.377zm177.806-3.368s.004 0 .008-.009c-1.065 1.451-2.195 2.565-3.377 3.377a13.144 13.144 0 0 0 1.73-1.442 1.05 1.05 0 0 1 .07-.082 15.857 15.857 0 0 0 1.569-1.844zm-175.554-1.135 1.125-1.126c-.375.375-.75.742-1.125 1.126z"/><path fill="#B77E6D" d="m759.697 229.634-1.028 1.037c0 .009 0 .025-.024.033.367-.378.758-.756 1.125-1.126 0 .024-.049.04-.073.064v-.008z"/><path fill="url(#bV)" d="m1385.5 267.848-128.68 87.473-22.59-17.536-53.96 15.371-26.35 20.121-12.13-11.85-305.781 173.178h632.471l-53.54-222.976-29.44-43.781z"/><path fill="url(#bW)" d="m1734.26 446.14-120.68-69.961-18.88 4.061-78.18-39.269-8.92 8.125-69.79-43.784-7.35 5.416-44.96-42.88-6.98 29.789 16.26 13.992h-20.98s9.44 23.471 3.67 28.887-20.47 4.062-20.47 4.062l-10.49 13.089-64.01-4.513-2.1 47.393-41.98-5.867 2.63 19.409-39.35 25.868-12.07 8.576-67.16.311-28.34 2.389-126.449 83.372h794.529l68.12-6.105-96.07-82.363v.003z"/><path fill="url(#bX)" d="m1437.35 305-7.35 5.385 189.92 222.602L1723 533l-222.97-178.275L1437.35 305z"/><path fill="url(#bY)" d="m1516.49 340.27-8.92 8.091 99.54 79.747 97.54 76.779 37.92-27.093-147.87-98.416-78.21-39.108z"/><path fill="url(#bZ)" d="M1764.42 485.426c-63.96-41.454-87.46-58.957-109.65-47.902-22.19 11.055-49.6 1.843-87.45-22.11-23.02-14.567-49.41-35.601-68.92-52.34 0-.003-.01-.007-.01-.011-.24-.207-.48-.414-.72-.619-12.21-10.503-21.63-19.242-25.64-23.489-9.68-10.254-23.86 1.676-38.36 4.196-1.14.196-2.27.343-3.41.411-5.9.346-20.69-5.322-38.69-13.753-27.23 4.877-107.94-45.818-121.28-55.644-13.34-9.826-39.45-20.47-49.89-13.92-10.44 6.551 12.76 21.29 33.07 36.849 20.3 15.557 9.28 23.337 3.47 17.606-5.8-5.731-66.13-42.171-78.31-52.815-12.19-10.644-22.63-12.282-19.73-8.598 2.9 3.685 6.96 9.009 0 11.055-6.96 2.047-26.68-16.785-30.75-20.061-4.06-3.275-17.4-13.919-23.2-9.006-.4.337-.84.636-1.3.909-.15 3.316 1.79 4.758 4.2 6.459 8.7 6.142 27.27 12.693 27.85 17.606.58 4.913-20.31 2.047-20.31 8.597 0 6.551 15.67 12.693 25.53 15.968 9.86 3.276 38.29 6.551 38.29 11.055s-29.59 1.638-41.77 3.684c-12.18 2.047-11.6 16.786-4.06 22.11 7.54 5.322 53.95 45.855 54.53 55.272.58 9.417-7.54 10.644-20.01 10.644-12.48 0-21.76 4.095-21.76 9.008 0 4.913 27.91 20.881 41.8 27.021 13.89 6.142 5.77 17.197-13.37 17.606 0 0-51.38-2.608-75.98 11.286-24.61 13.893-33.22 23.444-71.36 18.234-38.147-5.21-93.515-13.024-127.964 13.894-34.45 26.918-.667 39.058-4.358 46.872-3.692 7.814-17.227 18.235-56.597 15.63-33.822-2.237-62.355 19.747-70.96 36.87H1830.19l85.81-12.994-53-12.994c-23.17-13.351-79.29-60.081-98.58-72.579v-.007z"/><path fill="url(#ca)" d="M856.671 265.295c-11.96 2.766-13.155-12.904-26.314-10.139-13.156 2.766-124.394 94.023-155.492 126.286-31.098 32.263-62.196 58.074-81.333 72.823-19.138 14.748-27.51 11.983-38.275 18.435C544.492 479.152 450 579.628 450 579.628h337.463c7.885-17.135 38.024-34.774 69.017-32.533 36.079 2.606 48.478-7.819 51.861-15.64 3.383-7.82-31.568-24.328 0-51.264 31.568-26.936 82.303-19.116 117.249-13.903 34.95 5.214 42.85-4.343 65.4-18.246 22.54-13.903 69.62-11.293 69.62-11.293 17.54-.41 24.99-11.472 12.25-17.617-12.73-6.146-38.3-22.124-38.3-27.041 0-4.916 8.51-9.012 19.94-9.012 11.43 0 18.87-1.229 18.34-10.651-.53-9.423-43.06-49.98-49.97-55.308-6.91-5.325-7.45-20.074 3.72-22.124 11.16-2.048 38.27.819 38.27-3.686 0-4.506-26.04-7.785-35.08-11.062-9.04-3.278-23.39-9.424-23.39-15.979s19.13-3.686 18.6-8.603c-.53-4.916-17.54-11.471-25.51-17.617-2.22-1.704-3.44-4.007-3.85-6.463 0 .002-.01.004-.01.008-.35.223-.71.425-1.09.609-.29.145-.61.27-.92.391-.09.033-.17.073-.25.102-.39.14-.79.261-1.19.371l-.06.017c-.58.154-1.18.275-1.79.372-.29.044-.59.086-.88.119h-.01c-.12.015-.25.033-.37.046-.31.03-.61.048-.92.066-1.24.077-2.51.076-3.79.006-.1-.006-.2-.015-.3-.02-.43-.028-.86-.057-1.29-.098 0 0 .01 0 0 0-.15-.012-.29-.029-.44-.044a55.886 55.886 0 0 1-5.71-.893h-.01c-.22-.046-.44-.09-.66-.138-.27-.059-.52-.117-.78-.176-.01-.002-.02-.006-.03-.007-.11-.024-.21-.05-.32-.074-.48-.112-.94-.226-1.38-.338-6.38-1.638-13.82 4.508-22.32 10.242-8.51 5.737-17.55 0-14.36-5.325 3.19-5.326 9.04-12.701 2.66-13.931-6.38-1.229-30.83 15.158-48.907 27.654-18.076 12.495-51.034 34.619-54.224 31.341-3.191-3.277 10.631-19.255 27.642-31.136 17.011-11.88 29.239-30.316 6.91-18.845-22.328 11.472-55.816 20.484-57.412 12.701a8.4 8.4 0 0 1-.139-1.862c0-.11.006-.222.011-.334v-.002c.014-.246.037-.498.064-.753v-.003c.011-.094.017-.186.031-.281v-.002c.044-.35.103-.708.175-1.075.014-.076.033-.154.05-.23 0-.005 0-.009.003-.014.164-.793.381-1.615.642-2.459 0-.008.006-.015.006-.024.1-.321.205-.644.316-.971v-.007c.025-.074.048-.147.075-.221v-.005c.142-.402.29-.807.445-1.215v-.002c.159-.414.325-.829.498-1.246l.161-.387a71.9 71.9 0 0 1 .395-.914v-.002l.069-.156c.395-.89.812-1.772 1.237-2.635 0-.002 0-.005.003-.007l.117-.237c0-.005.005-.009.008-.015a72.687 72.687 0 0 1 .495-.978l.058-.112c.208-.403.417-.802.623-1.191l.008-.018c.006-.009.008-.018.014-.028.439-.82.87-1.603 1.287-2.341 0-.002 0-.006.003-.007-32.352 21.922-58.966 39.395-63.414 40.423h.011z"/><path fill="#EAEAEA" d="M1360.44 324.923c-27.37-13.974-62.78-35.525-82.52-49.905-31.66-23.075-154.42-103.374-178.43-125.525-13.54-12.498-22.12-18.531-29.4-20.089 4.21 7.154 7.94 15.202 8.59 22.039 1.61 16.818 6.94 34.458 13.34 42.662 6.41 8.204 14.94 9.024 20.28 10.665 5.34 1.64 4.27 11.076-5.87 11.895-7.33.594-11.86 8.041-10.8 14.448.43-.273.83-.573 1.19-.911 5.34-4.923 17.61 5.742 21.35 9.024 3.73 3.281 38.01 38.287 44.41 36.236 6.4-2.05 2.67-7.383 0-11.076-2.67-3.691 6.94-2.051 18.14 8.614 11.21 10.665 60.44 33.758 65.78 39.5 5.34 5.744 41.06 8.007 22.39-7.582-18.68-15.587-55.5-30.356-45.89-36.918 9.61-6.563 26.4 4.101 38.67 13.946 12.27 9.845 73.73 47.859 98.77 42.975v.002z"/><path fill="#EDF2FF" d="M918.606 228.433c-.023.045-.045.089-.07.133-.022.04-.042.083-.064.123-.164.32-.329.644-.49.97-.042.087-.087.171-.128.258-.399.81-.792 1.638-1.165 2.472l-.075.169c-.022.053-.047.107-.07.158-.133.302-.262.604-.39.904l-.167.401a87.224 87.224 0 0 0-.498 1.25v.002c-.156.408-.307.815-.446 1.218-.028.079-.05.157-.078.234-.112.328-.217.652-.318.974 0 .007-.005.016-.008.024-.039.121-.073.243-.109.364a24.21 24.21 0 0 0-.228.819c-.034.129-.07.258-.1.385-.076.303-.143.602-.204.898l-.053.245a18.11 18.11 0 0 0-.175 1.078c-.014.098-.02.192-.031.287-.028.256-.05.508-.064.755-.006.114-.008.226-.011.337v.004c-.006.233 0 .46.008.682.006.098.006.197.014.293.025.307.059.607.117.891 1.599 7.808 35.161-1.233 57.539-12.739 22.378-11.505 10.123 6.985-6.925 18.901-17.049 11.916-30.902 27.942-27.704 31.229 3.195 3.287 36.228-18.903 54.344-31.435 18.113-12.532 42.623-28.969 49.013-27.735 6.39 1.233.53 8.628-2.66 13.971-3.2 5.342 5.86 11.095 14.38 5.342 8.53-5.752 15.99-11.916 22.38-10.273.39.1.79.199 1.21.299.06.012.11.025.17.038.11.028.23.054.35.081.26.059.51.118.78.177.22.048.45.092.67.14l.72.147c.25.05.51.096.77.142.22.04.45.083.68.121.28.048.57.094.86.138l.64.1c.31.042.61.083.91.121.21.026.42.052.63.076.17.02.35.035.52.053l.44.046.6.052c.23.018.46.033.7.046.1.005.2.014.3.02.19.011.38.018.56.026.35.014.69.023 1.04.027.17.002.34 0 .51 0 .36 0 .71-.007 1.06-.02.16-.006.31-.017.46-.026.06-.004.11-.009.17-.011.31-.018.61-.037.92-.066.12-.013.25-.031.37-.046.3-.035.6-.076.89-.122.08-.011.16-.018.23-.031.09-.015.17-.035.26-.051.89-.166 1.76-.389 2.57-.681.04-.017.09-.037.13-.056.36-.134.71-.278 1.04-.441.38-.186.75-.389 1.09-.613l.01-.004c-1.06-6.418 3.47-13.88 10.78-14.472 10.13-.821 11.19-10.272 5.86-11.916-5.33-1.644-13.85-2.465-20.24-10.683-6.4-8.218-11.72-25.887-13.32-42.734-.65-6.848-4.38-14.91-8.58-22.075-5.61-1.206-10.45.259-16.19 3.482-8.29 4.646-79.473 54.523-134.243 91.663a104.659 104.659 0 0 0-1.273 2.312c-.008.015-.017.03-.022.044-.008.015-.017.03-.022.044-.184.348-.371.704-.558 1.062l-.016.002zm538.624 128.23c-11.18-10.675-19.8-19.556-23.48-23.873-8.87-10.421-21.85 1.704-35.13 4.265-38.98 40.323-83.19 116.511-83.19 116.511 106.53-116.66 137.13-100.741 141.8-96.905v.002zm-599.838-57.245s-71.758 64.637-93.407 93.366c0 0 31.669-53.823 81.982-96.798 0 0 .601 4.537 11.425 3.432z"/><path fill="url(#cb)" d="M678.743 581.879a4.407 4.407 0 0 1-1.125 1.125c.451-.507.824-.864 1.125-1.125z"/><path fill="url(#cc)" d="M1090.63 471.574c.56.211 1.31.563 2.26 1.126-1.03-.188-1.74-.61-2.26-1.126z"/><path fill="url(#cd)" d="M1186.29 476.076c.31.26.68.606 1.13 1.126-.44-.26-.82-.671-1.13-1.126z"/><path fill="url(#ce)" d="M1066.31 580.577c-.13.057-.32.101-.43.176.07-.003.14-.044.2-.06.07-.017.21-.043.25-.081.06 0 .12-.016.16-.043-.07.051-.19.093-.25.147.05.003.18-.034.2-.059.1-.006.19-.053.27-.083.06-.021.15-.042.2-.074-.03.026-.06.058-.1.071 0 .049-.06.087-.08.132.03-.023.06-.055.09-.08.04-.031.06-.035.11-.061.07-.035.1-.088.2-.105 0 .04 0 .073.03.108.15.002.08-.25.29-.238.01-.02 0-.046.01-.062a.385.385 0 0 1 .09-.051c.05-.03.1-.059.15-.096.07-.06.08-.073.09-.144.01-.032 0-.082.02-.112.02-.034.1-.056.15-.077.15-.059.17-.058.17-.158-.05-.003-.09.018-.12.031-.05.021-.09.026-.14.041-.1.03-.29.116-.35.178.04-.013.09-.034.13-.04-.06.029-.15.082-.22.118-.14.071-.23.165-.37.233-.06.026-.11.058-.16.081-.05.02-.11.031-.17.047-.07.02-.14.035-.2.064-.06.028-.11.054-.17.079.08 0 .15-.023.23-.027v-.012c.04-.001.09-.015.13-.024-.09.026-.18.054-.25.097-.05.033-.1.058-.16.084z"/><path fill="url(#cf)" d="M513.31 472.699c.28.209.645.563 1.126 1.126-.511-.193-.864-.619-1.126-1.126z"/><path fill="#1A1A59" d="M1068.89 129.116c.5-.077.89-.577.89-1.181l1.27-125.889c0-.66-.46-1.194-1.02-1.196-.57 0-1.03.532-1.03 1.19l-1.27 125.888c0 .66.46 1.194 1.02 1.197.05 0 .1-.003.14-.009z"/><path fill="#1A1A59" d="M1068.75 129.969c-.97-.002-1.75-.919-1.75-2.05l1.27-125.885c0-1.124.79-2.039 1.75-2.034.96.002 1.75.919 1.74 2.05l-1.26 125.885c0 1.016-.66 1.884-1.52 2.016-.05.007-.09.011-.14.014l-.09.002v.002zm.04-1.694c.15-.023.26-.171.26-.349l1.26-125.885c0-.192-.13-.347-.29-.347-.17 0-.3.155-.3.352l-1.27 125.884c0 .125.06.209.09.246.03.037.1.101.21.101.02 0 .03 0 .04-.002z"/><path fill="#D59A00" d="M1069.91 54.4s15.9 6.047 29.9 2.816c14-3.23 17.75-17.306 37.22-16.13 19.48 1.178 24.97 6.378 24.97 6.378s-4.47-12.147-12.29-17.701c0 0 5.4-5.441 15.83-7.182 0 0-10.26-8.534-23.94-11.55-13.26-2.923-20.03-3.554-35.88 6.503-10.09 6.399-35.57-6.956-35.57-6.956l-.23 43.824-.01-.002z"/><mask id="cg" width="97" height="50" x="1069" y="9" maskUnits="userSpaceOnUse" style="mask-type:alpha"><path fill="#FFEAC1" d="M1069.91 54.4s15.9 6.047 29.9 2.816c14-3.23 17.75-17.306 37.22-16.13 19.48 1.178 24.97 6.378 24.97 6.378s-4.47-12.147-12.29-17.701c0 0 5.4-5.441 15.83-7.182 0 0-10.26-8.534-23.94-11.55-13.26-2.923-20.03-3.554-35.88 6.503-10.09 6.399-35.57-6.956-35.57-6.956l-.23 43.824-.01-.002z"/></mask><g mask="url(#cg)"><path fill="#947151" d="M1082.81 30.146c-3.98-7.958-12.59-3.532-12.59-3.532 8.93-10.552 16.61.642 16.39 1.987-.39 1.59-2.88 3.458-3.8 1.546z"/><path fill="#C2ACA1" d="M1050.05 68.536c-.07-3.618-7.67-12.113-7.67-12.113s-3.61 15.156 6.32 15.773c.53.007 1.34-3.047 1.35-3.66zm54.34-13.282s.59-7.349-6.57-11.976l7.36-.213c5.58 4.914-.79 12.189-.79 12.189z"/><path fill="#F2F2F2" d="M1058.14 97.328c-.52-5.953-1.82-7.808-1.82-7.808-7.56-6.227-9.85-19.864-6.14-22.882 13.14-11.111 33.8-16.732 31.44-22.401-4.89-11.71.54-23.778 10.18-20.406 6.92 2.48 3.83 6.363 15.55 12.827 2.67 1.382 1.54 4.31-1.43 6.908-.96.846-1.33.903-4.64.8-3.2-.164-5.97 3.846-9.24-1.161 0 0 6.29 13.505 3.06 27.072 0 0 .57 5.77 9.03 17.585l-3.48 1.979-7.44-8.432s-2.4-7.632-4.1-5.753c-5.16 6.125-22.45 10.44-22.45 10.44-.04 4.29-3.41 10.316-3.41 10.316s3.18 3.229 6.21 11.114l-3.7 2.098c-1.45-2.839-7.62-12.296-7.62-12.296z"/><path fill="#3E4347" d="M1093.82 34.269c-.88.497-1.93.072-2.36-.95-.43-1.02-.06-2.251.82-2.748.87-.497 1.93-.071 2.35.95.43 1.02.06 2.251-.81 2.748z"/><path fill="#C2ACA1" d="M1105.7 38.663c.2.187.89.257 1-.11.16-.243-.21-.799-.57-1.049-.21-.186-.58-.13-.69.237a.92.92 0 0 0 .26.922zm-6.63.1c.3 1.659 1.29 3.081 2.59 4.018.58.436 1.36.752 2.1.946.73.193 1.47.08 2.2-.033-1.41-.264-2.72-.587-3.87-1.46-.58-.436-1.05-.933-1.57-1.552-.52-.62-1.04-1.24-1.45-1.92z"/><path fill="#F1E7DC" d="M1083.81 33.852c-6.66 3.471-10.24-7.302-8.93-7.286 2.11.027 8.58-.136 10.02 3.316.25.616 1.81 2.475-1.09 3.97z"/><path fill="#C2ACA1" d="M1083.13 29.965c-1.35-1.673-6.08-1.733-6.82-1.62-.79-.01 1.42 5.29 6.53 4.987.52.007.94-.233 1-.722.06-.49-1.2-.69-1.99-.7-.89.05 0-.307.58-.483.63-.053.11-.366-.41-.373-.58-.13.63-.36 1.26-.107.63.254.73.194-.15-.982z"/><path fill="#947151" d="M1084.65 27.733c-1.95-10.323-12.8-9.051-12.8-9.051 13.12-8.047 18.18 7.527 17.43 8.866-.91 1.582-4.13 2.644-4.63.186z"/></g><defs><linearGradient id="a" x1="621.461" x2="621.462" y1="319.819" y2="796.202" gradientUnits="userSpaceOnUse"><stop offset=".156" stop-color="#676767"/><stop offset=".49" stop-color="#2C2C2D"/></linearGradient><linearGradient id="b" x1="463.287" x2="463.287" y1="473.485" y2="596.007" gradientUnits="userSpaceOnUse"><stop offset=".156" stop-color="#676767"/><stop offset=".49" stop-color="#2C2C2D"/></linearGradient><linearGradient id="c" x1="439.913" x2="439.914" y1="319.817" y2="796.203" gradientUnits="userSpaceOnUse"><stop offset=".156" stop-color="#676767"/><stop offset=".49" stop-color="#2C2C2D"/></linearGradient><linearGradient id="d" x1="115.285" x2="115.285" y1="387.143" y2="742.997" gradientUnits="userSpaceOnUse"><stop offset=".156" stop-color="#676767"/><stop offset=".49" stop-color="#2C2C2D"/></linearGradient><linearGradient id="e" x1="61.181" x2="61.181" y1="451.687" y2="591.54" gradientUnits="userSpaceOnUse"><stop offset=".156" stop-color="#676767"/><stop offset=".49" stop-color="#2C2C2D"/></linearGradient><linearGradient id="f" x1="174.175" x2="174.175" y1="457.207" y2="796.559" gradientUnits="userSpaceOnUse"><stop offset=".156" stop-color="#676767"/><stop offset=".49" stop-color="#2C2C2D"/></linearGradient><linearGradient id="g" x1="317.592" x2="317.592" y1="546.913" y2="796.816" gradientUnits="userSpaceOnUse"><stop offset=".156" stop-color="#676767"/><stop offset=".49" stop-color="#2C2C2D"/></linearGradient><linearGradient id="h" x1="515.07" x2="515.071" y1="592.171" y2="796.933" gradientUnits="userSpaceOnUse"><stop offset=".156" stop-color="#676767"/><stop offset=".49" stop-color="#2C2C2D"/></linearGradient><linearGradient id="i" x1="97.992" x2="98.098" y1="606.054" y2="606.054" gradientUnits="userSpaceOnUse"><stop offset=".18" stop-color="#2A3292"/><stop offset=".95" stop-color="#1A1A59"/></linearGradient><linearGradient id="j" x1="190.674" x2="190.776" y1="588.847" y2="588.847" gradientUnits="userSpaceOnUse"><stop offset=".18" stop-color="#2A3292"/><stop offset=".95" stop-color="#1A1A59"/></linearGradient><linearGradient id="k" x1="157.273" x2="157.453" y1="594.65" y2="594.65" gradientUnits="userSpaceOnUse"><stop offset=".18" stop-color="#2A3292"/><stop offset=".95" stop-color="#1A1A59"/></linearGradient><linearGradient id="l" x1="500.801" x2="500.98" y1="524.714" y2="524.714" gradientUnits="userSpaceOnUse"><stop offset=".18" stop-color="#2A3292"/><stop offset=".95" stop-color="#1A1A59"/></linearGradient><linearGradient id="m" x1="256.926" x2="257.946" y1="545.721" y2="545.721" gradientUnits="userSpaceOnUse"><stop offset=".18" stop-color="#2A3292"/><stop offset=".95" stop-color="#1A1A59"/></linearGradient><linearGradient id="n" x1="282.073" x2="283.094" y1="523.482" y2="523.482" gradientUnits="userSpaceOnUse"><stop offset=".18" stop-color="#2A3292"/><stop offset=".95" stop-color="#1A1A59"/></linearGradient><linearGradient id="o" x1="66.303" x2="67.265" y1="606.897" y2="606.897" gradientUnits="userSpaceOnUse"><stop offset=".18" stop-color="#2A3292"/><stop offset=".95" stop-color="#1A1A59"/></linearGradient><linearGradient id="p" x1="106.612" x2="106.673" y1="605.331" y2="605.331" gradientUnits="userSpaceOnUse"><stop offset=".18" stop-color="#2A3292"/><stop offset=".95" stop-color="#1A1A59"/></linearGradient><linearGradient id="q" x1="105.987" x2="106.045" y1="605.369" y2="605.369" gradientUnits="userSpaceOnUse"><stop offset=".18" stop-color="#2A3292"/><stop offset=".95" stop-color="#1A1A59"/></linearGradient><linearGradient id="r" x1="310.431" x2="311.389" y1="500.742" y2="500.742" gradientUnits="userSpaceOnUse"><stop offset=".18" stop-color="#2A3292"/><stop offset=".95" stop-color="#1A1A59"/></linearGradient><linearGradient id="s" x1="374.827" x2="375.533" y1="475.255" y2="475.255" gradientUnits="userSpaceOnUse"><stop offset=".18" stop-color="#2A3292"/><stop offset=".95" stop-color="#1A1A59"/></linearGradient><linearGradient id="t" x1="345.119" x2="346.077" y1="480.444" y2="480.444" gradientUnits="userSpaceOnUse"><stop offset=".18" stop-color="#2A3292"/><stop offset=".95" stop-color="#1A1A59"/></linearGradient><linearGradient id="u" x1="405.172" x2="405.658" y1="469.607" y2="469.607" gradientUnits="userSpaceOnUse"><stop offset=".18" stop-color="#2A3292"/><stop offset=".95" stop-color="#1A1A59"/></linearGradient><linearGradient id="v" x1="384.523" x2="385.193" y1="474.797" y2="474.797" gradientUnits="userSpaceOnUse"><stop offset=".18" stop-color="#2A3292"/><stop offset=".95" stop-color="#1A1A59"/></linearGradient><linearGradient id="w" x1="405.641" x2="405.69" y1="474.41" y2="474.41" gradientUnits="userSpaceOnUse"><stop offset=".18" stop-color="#2A3292"/><stop offset=".95" stop-color="#1A1A59"/></linearGradient><linearGradient id="x" x1="404.732" x2="405.218" y1="469.645" y2="469.645" gradientUnits="userSpaceOnUse"><stop offset=".18" stop-color="#2A3292"/><stop offset=".95" stop-color="#1A1A59"/></linearGradient><linearGradient id="y" x1="434.409" x2="434.849" y1="483.815" y2="483.815" gradientUnits="userSpaceOnUse"><stop offset=".18" stop-color="#2A3292"/><stop offset=".95" stop-color="#1A1A59"/></linearGradient><linearGradient id="z" x1="434.043" x2="434.084" y1="488.585" y2="488.585" gradientUnits="userSpaceOnUse"><stop offset=".18" stop-color="#2A3292"/><stop offset=".95" stop-color="#1A1A59"/></linearGradient><linearGradient id="A" x1="433.963" x2="434.406" y1="483.768" y2="483.768" gradientUnits="userSpaceOnUse"><stop offset=".18" stop-color="#2A3292"/><stop offset=".95" stop-color="#1A1A59"/></linearGradient><linearGradient id="B" x1="528.576" x2="529.304" y1="543.066" y2="543.066" gradientUnits="userSpaceOnUse"><stop offset=".18" stop-color="#2A3292"/><stop offset=".95" stop-color="#1A1A59"/></linearGradient><linearGradient id="C" x1="599.363" x2="600.088" y1="595.92" y2="595.92" gradientUnits="userSpaceOnUse"><stop offset=".18" stop-color="#2A3292"/><stop offset=".95" stop-color="#1A1A59"/></linearGradient><linearGradient id="D" x1="548.472" x2="549" y1="553.095" y2="553.095" gradientUnits="userSpaceOnUse"><stop offset=".18" stop-color="#2A3292"/><stop offset=".95" stop-color="#1A1A59"/></linearGradient><linearGradient id="E" x1="565.828" x2="566.592" y1="565.81" y2="565.81" gradientUnits="userSpaceOnUse"><stop offset=".18" stop-color="#2A3292"/><stop offset=".95" stop-color="#1A1A59"/></linearGradient><linearGradient id="F" x1="546.859" x2="546.918" y1="557.473" y2="557.473" gradientUnits="userSpaceOnUse"><stop offset=".18" stop-color="#2A3292"/><stop offset=".95" stop-color="#1A1A59"/></linearGradient><linearGradient id="G" x1="548.865" x2="549.394" y1="553.3" y2="553.3" gradientUnits="userSpaceOnUse"><stop offset=".18" stop-color="#2A3292"/><stop offset=".95" stop-color="#1A1A59"/></linearGradient><linearGradient id="H" x1="618.393" x2="618.922" y1="602.789" y2="602.789" gradientUnits="userSpaceOnUse"><stop offset=".18" stop-color="#2A3292"/><stop offset=".95" stop-color="#1A1A59"/></linearGradient><linearGradient id="I" x1="616.791" x2="616.85" y1="607.168" y2="607.168" gradientUnits="userSpaceOnUse"><stop offset=".18" stop-color="#2A3292"/><stop offset=".95" stop-color="#1A1A59"/></linearGradient><linearGradient id="J" x1="618.797" x2="619.329" y1="602.994" y2="602.994" gradientUnits="userSpaceOnUse"><stop offset=".18" stop-color="#2A3292"/><stop offset=".95" stop-color="#1A1A59"/></linearGradient><linearGradient id="K" x1="178.015" x2="178.977" y1="593.934" y2="593.934" gradientUnits="userSpaceOnUse"><stop offset=".18" stop-color="#2A3292"/><stop offset=".95" stop-color="#1A1A59"/></linearGradient><linearGradient id="L" x1="447.524" x2="448.231" y1="494.93" y2="494.93" gradientUnits="userSpaceOnUse"><stop offset=".18" stop-color="#2A3292"/><stop offset=".95" stop-color="#1A1A59"/></linearGradient><linearGradient id="M" x1="458.158" x2="458.216" y1="498.551" y2="498.551" gradientUnits="userSpaceOnUse"><stop offset=".18" stop-color="#2A3292"/><stop offset=".95" stop-color="#1A1A59"/></linearGradient><linearGradient id="N" x1="448.719" x2="448.795" y1="499.823" y2="499.823" gradientUnits="userSpaceOnUse"><stop offset=".18" stop-color="#2A3292"/><stop offset=".95" stop-color="#1A1A59"/></linearGradient><linearGradient id="O" x1="448.229" x2="448.296" y1="499.727" y2="499.727" gradientUnits="userSpaceOnUse"><stop offset=".18" stop-color="#2A3292"/><stop offset=".95" stop-color="#1A1A59"/></linearGradient><linearGradient id="P" x1="446.904" x2="447.61" y1="494.967" y2="494.967" gradientUnits="userSpaceOnUse"><stop offset=".18" stop-color="#2A3292"/><stop offset=".95" stop-color="#1A1A59"/></linearGradient><linearGradient id="Q" x1="457.517" x2="457.578" y1="498.589" y2="498.589" gradientUnits="userSpaceOnUse"><stop offset=".18" stop-color="#2A3292"/><stop offset=".95" stop-color="#1A1A59"/></linearGradient><linearGradient id="R" x1="461.027" x2="461.733" y1="503.602" y2="503.602" gradientUnits="userSpaceOnUse"><stop offset=".18" stop-color="#2A3292"/><stop offset=".95" stop-color="#1A1A59"/></linearGradient><linearGradient id="S" x1="460.385" x2="461.092" y1="503.639" y2="503.639" gradientUnits="userSpaceOnUse"><stop offset=".18" stop-color="#2A3292"/><stop offset=".95" stop-color="#1A1A59"/></linearGradient><linearGradient id="T" x1="475.975" x2="476.681" y1="512.694" y2="512.694" gradientUnits="userSpaceOnUse"><stop offset=".18" stop-color="#2A3292"/><stop offset=".95" stop-color="#1A1A59"/></linearGradient><linearGradient id="U" x1="486.602" x2="486.664" y1="516.316" y2="516.316" gradientUnits="userSpaceOnUse"><stop offset=".18" stop-color="#2A3292"/><stop offset=".95" stop-color="#1A1A59"/></linearGradient><linearGradient id="V" x1="477.152" x2="477.225" y1="517.587" y2="517.587" gradientUnits="userSpaceOnUse"><stop offset=".18" stop-color="#2A3292"/><stop offset=".95" stop-color="#1A1A59"/></linearGradient><linearGradient id="W" x1="476.664" x2="476.731" y1="517.493" y2="517.493" gradientUnits="userSpaceOnUse"><stop offset=".18" stop-color="#2A3292"/><stop offset=".95" stop-color="#1A1A59"/></linearGradient><linearGradient id="X" x1="475.337" x2="476.043" y1="512.731" y2="512.731" gradientUnits="userSpaceOnUse"><stop offset=".18" stop-color="#2A3292"/><stop offset=".95" stop-color="#1A1A59"/></linearGradient><linearGradient id="Y" x1="485.943" x2="486.002" y1="516.353" y2="516.353" gradientUnits="userSpaceOnUse"><stop offset=".18" stop-color="#2A3292"/><stop offset=".95" stop-color="#1A1A59"/></linearGradient><linearGradient id="Z" x1="580.216" x2="580.922" y1="579.982" y2="579.982" gradientUnits="userSpaceOnUse"><stop offset=".18" stop-color="#2A3292"/><stop offset=".95" stop-color="#1A1A59"/></linearGradient><linearGradient id="aa" x1="590.826" x2="590.884" y1="583.607" y2="583.607" gradientUnits="userSpaceOnUse"><stop offset=".18" stop-color="#2A3292"/><stop offset=".95" stop-color="#1A1A59"/></linearGradient><linearGradient id="ab" x1="581.391" x2="581.464" y1="584.878" y2="584.878" gradientUnits="userSpaceOnUse"><stop offset=".18" stop-color="#2A3292"/><stop offset=".95" stop-color="#1A1A59"/></linearGradient><linearGradient id="ac" x1="580.905" x2="580.976" y1="584.782" y2="584.782" gradientUnits="userSpaceOnUse"><stop offset=".18" stop-color="#2A3292"/><stop offset=".95" stop-color="#1A1A59"/></linearGradient><linearGradient id="ad" x1="590.2" x2="590.258" y1="583.644" y2="583.644" gradientUnits="userSpaceOnUse"><stop offset=".18" stop-color="#2A3292"/><stop offset=".95" stop-color="#1A1A59"/></linearGradient><linearGradient id="ae" x1="511.588" x2="512.236" y1="526.087" y2="526.087" gradientUnits="userSpaceOnUse"><stop offset=".18" stop-color="#2A3292"/><stop offset=".95" stop-color="#1A1A59"/></linearGradient><linearGradient id="af" x1="521.284" x2="521.339" y1="531.846" y2="531.846" gradientUnits="userSpaceOnUse"><stop offset=".18" stop-color="#2A3292"/><stop offset=".95" stop-color="#1A1A59"/></linearGradient><linearGradient id="ag" x1="511.811" x2="511.871" y1="531.069" y2="531.069" gradientUnits="userSpaceOnUse"><stop offset=".18" stop-color="#2A3292"/><stop offset=".95" stop-color="#1A1A59"/></linearGradient><linearGradient id="ah" x1="511.361" x2="511.425" y1="530.871" y2="530.871" gradientUnits="userSpaceOnUse"><stop offset=".18" stop-color="#2A3292"/><stop offset=".95" stop-color="#1A1A59"/></linearGradient><linearGradient id="ai" x1="510.957" x2="511.605" y1="525.99" y2="525.99" gradientUnits="userSpaceOnUse"><stop offset=".18" stop-color="#2A3292"/><stop offset=".95" stop-color="#1A1A59"/></linearGradient><linearGradient id="aj" x1="520.655" x2="520.71" y1="531.745" y2="531.745" gradientUnits="userSpaceOnUse"><stop offset=".18" stop-color="#2A3292"/><stop offset=".95" stop-color="#1A1A59"/></linearGradient><linearGradient id="ak" x1="53.053" x2="53.51" y1="609.468" y2="609.468" gradientUnits="userSpaceOnUse"><stop offset=".18" stop-color="#2A3292"/><stop offset=".95" stop-color="#1A1A59"/></linearGradient><linearGradient id="al" x1="52.643" x2="53.1" y1="609.489" y2="609.489" gradientUnits="userSpaceOnUse"><stop offset=".18" stop-color="#2A3292"/><stop offset=".95" stop-color="#1A1A59"/></linearGradient><linearGradient id="am" x1="196.709" x2="197.212" y1="602.829" y2="602.829" gradientUnits="userSpaceOnUse"><stop offset=".18" stop-color="#2A2A75"/><stop offset=".95" stop-color="#1A1A59"/></linearGradient><linearGradient id="an" x1="217.869" x2="218.561" y1="606.406" y2="606.406" gradientUnits="userSpaceOnUse"><stop offset=".18" stop-color="#2A2A75"/><stop offset=".95" stop-color="#1A1A59"/></linearGradient><linearGradient id="ao" x1="175.033" x2="175.383" y1="598.939" y2="598.939" gradientUnits="userSpaceOnUse"><stop offset=".18" stop-color="#2A2A75"/><stop offset=".95" stop-color="#1A1A59"/></linearGradient><linearGradient id="ap" x1="189.739" x2="190.217" y1="602.516" y2="602.516" gradientUnits="userSpaceOnUse"><stop offset=".18" stop-color="#2A2A75"/><stop offset=".95" stop-color="#1A1A59"/></linearGradient><linearGradient id="aq" x1="175.01" x2="175.036" y1="602.243" y2="602.243" gradientUnits="userSpaceOnUse"><stop offset=".18" stop-color="#2A2A75"/><stop offset=".95" stop-color="#1A1A59"/></linearGradient><linearGradient id="ar" x1="175.347" x2="175.701" y1="598.964" y2="598.964" gradientUnits="userSpaceOnUse"><stop offset=".18" stop-color="#2A2A75"/><stop offset=".95" stop-color="#1A1A59"/></linearGradient><linearGradient id="as" x1="128.377" x2="128.642" y1="560.989" y2="560.989" gradientUnits="userSpaceOnUse"><stop offset=".18" stop-color="#2A2A75"/><stop offset=".95" stop-color="#1A1A59"/></linearGradient><linearGradient id="at" x1="154.342" x2="154.659" y1="608.699" y2="608.699" gradientUnits="userSpaceOnUse"><stop offset=".18" stop-color="#2A2A75"/><stop offset=".95" stop-color="#1A1A59"/></linearGradient><linearGradient id="au" x1="1539.54" x2="1539.54" y1="319.819" y2="796.202" gradientUnits="userSpaceOnUse"><stop offset=".156" stop-color="#676767"/><stop offset=".49" stop-color="#2C2C2D"/></linearGradient><linearGradient id="av" x1="1697.71" x2="1697.71" y1="473.485" y2="596.007" gradientUnits="userSpaceOnUse"><stop offset=".156" stop-color="#676767"/><stop offset=".49" stop-color="#2C2C2D"/></linearGradient><linearGradient id="aw" x1="1721.09" x2="1721.09" y1="319.817" y2="796.203" gradientUnits="userSpaceOnUse"><stop offset=".156" stop-color="#676767"/><stop offset=".49" stop-color="#2C2C2D"/></linearGradient><linearGradient id="ax" x1="2045.72" x2="2045.72" y1="387.143" y2="742.997" gradientUnits="userSpaceOnUse"><stop offset=".156" stop-color="#676767"/><stop offset=".49" stop-color="#2C2C2D"/></linearGradient><linearGradient id="ay" x1="2099.82" x2="2099.82" y1="451.687" y2="591.54" gradientUnits="userSpaceOnUse"><stop offset=".156" stop-color="#676767"/><stop offset=".49" stop-color="#2C2C2D"/></linearGradient><linearGradient id="az" x1="1986.83" x2="1986.83" y1="457.207" y2="796.559" gradientUnits="userSpaceOnUse"><stop offset=".156" stop-color="#676767"/><stop offset=".49" stop-color="#2C2C2D"/></linearGradient><linearGradient id="aA" x1="1843.41" x2="1843.41" y1="546.913" y2="796.816" gradientUnits="userSpaceOnUse"><stop offset=".156" stop-color="#676767"/><stop offset=".49" stop-color="#2C2C2D"/></linearGradient><linearGradient id="aB" x1="1645.93" x2="1645.93" y1="592.171" y2="796.933" gradientUnits="userSpaceOnUse"><stop offset=".156" stop-color="#676767"/><stop offset=".49" stop-color="#2C2C2D"/></linearGradient><linearGradient id="aC" x1="2063.01" x2="2062.9" y1="606.054" y2="606.054" gradientUnits="userSpaceOnUse"><stop offset=".18" stop-color="#2A3292"/><stop offset=".95" stop-color="#1A1A59"/></linearGradient><linearGradient id="aD" x1="1970.33" x2="1970.22" y1="588.847" y2="588.847" gradientUnits="userSpaceOnUse"><stop offset=".18" stop-color="#2A3292"/><stop offset=".95" stop-color="#1A1A59"/></linearGradient><linearGradient id="aE" x1="2003.73" x2="2003.55" y1="594.65" y2="594.65" gradientUnits="userSpaceOnUse"><stop offset=".18" stop-color="#2A3292"/><stop offset=".95" stop-color="#1A1A59"/></linearGradient><linearGradient id="aF" x1="1660.2" x2="1660.02" y1="524.714" y2="524.714" gradientUnits="userSpaceOnUse"><stop offset=".18" stop-color="#2A3292"/><stop offset=".95" stop-color="#1A1A59"/></linearGradient><linearGradient id="aG" x1="1904.07" x2="1903.05" y1="545.721" y2="545.721" gradientUnits="userSpaceOnUse"><stop offset=".18" stop-color="#2A3292"/><stop offset=".95" stop-color="#1A1A59"/></linearGradient><linearGradient id="aH" x1="1878.93" x2="1877.91" y1="523.482" y2="523.482" gradientUnits="userSpaceOnUse"><stop offset=".18" stop-color="#2A3292"/><stop offset=".95" stop-color="#1A1A59"/></linearGradient><linearGradient id="aI" x1="2094.7" x2="2093.73" y1="606.897" y2="606.897" gradientUnits="userSpaceOnUse"><stop offset=".18" stop-color="#2A3292"/><stop offset=".95" stop-color="#1A1A59"/></linearGradient><linearGradient id="aJ" x1="2054.39" x2="2054.33" y1="605.331" y2="605.331" gradientUnits="userSpaceOnUse"><stop offset=".18" stop-color="#2A3292"/><stop offset=".95" stop-color="#1A1A59"/></linearGradient><linearGradient id="aK" x1="2055.01" x2="2054.95" y1="605.369" y2="605.369" gradientUnits="userSpaceOnUse"><stop offset=".18" stop-color="#2A3292"/><stop offset=".95" stop-color="#1A1A59"/></linearGradient><linearGradient id="aL" x1="1850.57" x2="1849.61" y1="500.742" y2="500.742" gradientUnits="userSpaceOnUse"><stop offset=".18" stop-color="#2A3292"/><stop offset=".95" stop-color="#1A1A59"/></linearGradient><linearGradient id="aM" x1="1786.17" x2="1785.47" y1="475.255" y2="475.255" gradientUnits="userSpaceOnUse"><stop offset=".18" stop-color="#2A3292"/><stop offset=".95" stop-color="#1A1A59"/></linearGradient><linearGradient id="aN" x1="1815.88" x2="1814.92" y1="480.444" y2="480.444" gradientUnits="userSpaceOnUse"><stop offset=".18" stop-color="#2A3292"/><stop offset=".95" stop-color="#1A1A59"/></linearGradient><linearGradient id="aO" x1="1755.83" x2="1755.34" y1="469.607" y2="469.607" gradientUnits="userSpaceOnUse"><stop offset=".18" stop-color="#2A3292"/><stop offset=".95" stop-color="#1A1A59"/></linearGradient><linearGradient id="aP" x1="1776.48" x2="1775.81" y1="474.797" y2="474.797" gradientUnits="userSpaceOnUse"><stop offset=".18" stop-color="#2A3292"/><stop offset=".95" stop-color="#1A1A59"/></linearGradient><linearGradient id="aQ" x1="1755.36" x2="1755.31" y1="474.41" y2="474.41" gradientUnits="userSpaceOnUse"><stop offset=".18" stop-color="#2A3292"/><stop offset=".95" stop-color="#1A1A59"/></linearGradient><linearGradient id="aR" x1="1756.27" x2="1755.78" y1="469.645" y2="469.645" gradientUnits="userSpaceOnUse"><stop offset=".18" stop-color="#2A3292"/><stop offset=".95" stop-color="#1A1A59"/></linearGradient><linearGradient id="aS" x1="1726.59" x2="1726.15" y1="483.815" y2="483.815" gradientUnits="userSpaceOnUse"><stop offset=".18" stop-color="#2A3292"/><stop offset=".95" stop-color="#1A1A59"/></linearGradient><linearGradient id="aT" x1="1726.96" x2="1726.92" y1="488.585" y2="488.585" gradientUnits="userSpaceOnUse"><stop offset=".18" stop-color="#2A3292"/><stop offset=".95" stop-color="#1A1A59"/></linearGradient><linearGradient id="aU" x1="1727.04" x2="1726.59" y1="483.768" y2="483.768" gradientUnits="userSpaceOnUse"><stop offset=".18" stop-color="#2A3292"/><stop offset=".95" stop-color="#1A1A59"/></linearGradient><linearGradient id="aV" x1="1632.42" x2="1631.7" y1="543.066" y2="543.066" gradientUnits="userSpaceOnUse"><stop offset=".18" stop-color="#2A3292"/><stop offset=".95" stop-color="#1A1A59"/></linearGradient><linearGradient id="aW" x1="1561.64" x2="1560.91" y1="595.92" y2="595.92" gradientUnits="userSpaceOnUse"><stop offset=".18" stop-color="#2A3292"/><stop offset=".95" stop-color="#1A1A59"/></linearGradient><linearGradient id="aX" x1="1612.53" x2="1612" y1="553.095" y2="553.095" gradientUnits="userSpaceOnUse"><stop offset=".18" stop-color="#2A3292"/><stop offset=".95" stop-color="#1A1A59"/></linearGradient><linearGradient id="aY" x1="1595.17" x2="1594.41" y1="565.81" y2="565.81" gradientUnits="userSpaceOnUse"><stop offset=".18" stop-color="#2A3292"/><stop offset=".95" stop-color="#1A1A59"/></linearGradient><linearGradient id="aZ" x1="1614.14" x2="1614.08" y1="557.473" y2="557.473" gradientUnits="userSpaceOnUse"><stop offset=".18" stop-color="#2A3292"/><stop offset=".95" stop-color="#1A1A59"/></linearGradient><linearGradient id="ba" x1="1612.13" x2="1611.61" y1="553.3" y2="553.3" gradientUnits="userSpaceOnUse"><stop offset=".18" stop-color="#2A3292"/><stop offset=".95" stop-color="#1A1A59"/></linearGradient><linearGradient id="bb" x1="1542.61" x2="1542.08" y1="602.789" y2="602.789" gradientUnits="userSpaceOnUse"><stop offset=".18" stop-color="#2A3292"/><stop offset=".95" stop-color="#1A1A59"/></linearGradient><linearGradient id="bc" x1="1544.21" x2="1544.15" y1="607.168" y2="607.168" gradientUnits="userSpaceOnUse"><stop offset=".18" stop-color="#2A3292"/><stop offset=".95" stop-color="#1A1A59"/></linearGradient><linearGradient id="bd" x1="1542.2" x2="1541.67" y1="602.994" y2="602.994" gradientUnits="userSpaceOnUse"><stop offset=".18" stop-color="#2A3292"/><stop offset=".95" stop-color="#1A1A59"/></linearGradient><linearGradient id="be" x1="1982.98" x2="1982.02" y1="593.934" y2="593.934" gradientUnits="userSpaceOnUse"><stop offset=".18" stop-color="#2A3292"/><stop offset=".95" stop-color="#1A1A59"/></linearGradient><linearGradient id="bf" x1="1713.48" x2="1712.77" y1="494.93" y2="494.93" gradientUnits="userSpaceOnUse"><stop offset=".18" stop-color="#2A3292"/><stop offset=".95" stop-color="#1A1A59"/></linearGradient><linearGradient id="bg" x1="1702.84" x2="1702.78" y1="498.551" y2="498.551" gradientUnits="userSpaceOnUse"><stop offset=".18" stop-color="#2A3292"/><stop offset=".95" stop-color="#1A1A59"/></linearGradient><linearGradient id="bh" x1="1712.28" x2="1712.2" y1="499.823" y2="499.823" gradientUnits="userSpaceOnUse"><stop offset=".18" stop-color="#2A3292"/><stop offset=".95" stop-color="#1A1A59"/></linearGradient><linearGradient id="bi" x1="1712.77" x2="1712.7" y1="499.727" y2="499.727" gradientUnits="userSpaceOnUse"><stop offset=".18" stop-color="#2A3292"/><stop offset=".95" stop-color="#1A1A59"/></linearGradient><linearGradient id="bj" x1="1714.1" x2="1713.39" y1="494.967" y2="494.967" gradientUnits="userSpaceOnUse"><stop offset=".18" stop-color="#2A3292"/><stop offset=".95" stop-color="#1A1A59"/></linearGradient><linearGradient id="bk" x1="1703.48" x2="1703.42" y1="498.589" y2="498.589" gradientUnits="userSpaceOnUse"><stop offset=".18" stop-color="#2A3292"/><stop offset=".95" stop-color="#1A1A59"/></linearGradient><linearGradient id="bl" x1="1699.97" x2="1699.27" y1="503.602" y2="503.602" gradientUnits="userSpaceOnUse"><stop offset=".18" stop-color="#2A3292"/><stop offset=".95" stop-color="#1A1A59"/></linearGradient><linearGradient id="bm" x1="1700.61" x2="1699.91" y1="503.639" y2="503.639" gradientUnits="userSpaceOnUse"><stop offset=".18" stop-color="#2A3292"/><stop offset=".95" stop-color="#1A1A59"/></linearGradient><linearGradient id="bn" x1="1685.03" x2="1684.32" y1="512.694" y2="512.694" gradientUnits="userSpaceOnUse"><stop offset=".18" stop-color="#2A3292"/><stop offset=".95" stop-color="#1A1A59"/></linearGradient><linearGradient id="bo" x1="1674.4" x2="1674.34" y1="516.316" y2="516.316" gradientUnits="userSpaceOnUse"><stop offset=".18" stop-color="#2A3292"/><stop offset=".95" stop-color="#1A1A59"/></linearGradient><linearGradient id="bp" x1="1683.85" x2="1683.77" y1="517.587" y2="517.587" gradientUnits="userSpaceOnUse"><stop offset=".18" stop-color="#2A3292"/><stop offset=".95" stop-color="#1A1A59"/></linearGradient><linearGradient id="bq" x1="1684.34" x2="1684.27" y1="517.493" y2="517.493" gradientUnits="userSpaceOnUse"><stop offset=".18" stop-color="#2A3292"/><stop offset=".95" stop-color="#1A1A59"/></linearGradient><linearGradient id="br" x1="1685.66" x2="1684.96" y1="512.731" y2="512.731" gradientUnits="userSpaceOnUse"><stop offset=".18" stop-color="#2A3292"/><stop offset=".95" stop-color="#1A1A59"/></linearGradient><linearGradient id="bs" x1="1675.06" x2="1675" y1="516.353" y2="516.353" gradientUnits="userSpaceOnUse"><stop offset=".18" stop-color="#2A3292"/><stop offset=".95" stop-color="#1A1A59"/></linearGradient><linearGradient id="bt" x1="1580.78" x2="1580.08" y1="579.982" y2="579.982" gradientUnits="userSpaceOnUse"><stop offset=".18" stop-color="#2A3292"/><stop offset=".95" stop-color="#1A1A59"/></linearGradient><linearGradient id="bu" x1="1570.17" x2="1570.12" y1="583.607" y2="583.607" gradientUnits="userSpaceOnUse"><stop offset=".18" stop-color="#2A3292"/><stop offset=".95" stop-color="#1A1A59"/></linearGradient><linearGradient id="bv" x1="1579.61" x2="1579.54" y1="584.878" y2="584.878" gradientUnits="userSpaceOnUse"><stop offset=".18" stop-color="#2A3292"/><stop offset=".95" stop-color="#1A1A59"/></linearGradient><linearGradient id="bw" x1="1580.09" x2="1580.02" y1="584.782" y2="584.782" gradientUnits="userSpaceOnUse"><stop offset=".18" stop-color="#2A3292"/><stop offset=".95" stop-color="#1A1A59"/></linearGradient><linearGradient id="bx" x1="1570.8" x2="1570.74" y1="583.644" y2="583.644" gradientUnits="userSpaceOnUse"><stop offset=".18" stop-color="#2A3292"/><stop offset=".95" stop-color="#1A1A59"/></linearGradient><linearGradient id="by" x1="1649.41" x2="1648.76" y1="526.087" y2="526.087" gradientUnits="userSpaceOnUse"><stop offset=".18" stop-color="#2A3292"/><stop offset=".95" stop-color="#1A1A59"/></linearGradient><linearGradient id="bz" x1="1639.72" x2="1639.66" y1="531.846" y2="531.846" gradientUnits="userSpaceOnUse"><stop offset=".18" stop-color="#2A3292"/><stop offset=".95" stop-color="#1A1A59"/></linearGradient><linearGradient id="bA" x1="1649.19" x2="1649.13" y1="531.069" y2="531.069" gradientUnits="userSpaceOnUse"><stop offset=".18" stop-color="#2A3292"/><stop offset=".95" stop-color="#1A1A59"/></linearGradient><linearGradient id="bB" x1="1649.64" x2="1649.57" y1="530.871" y2="530.871" gradientUnits="userSpaceOnUse"><stop offset=".18" stop-color="#2A3292"/><stop offset=".95" stop-color="#1A1A59"/></linearGradient><linearGradient id="bC" x1="1650.04" x2="1649.39" y1="525.99" y2="525.99" gradientUnits="userSpaceOnUse"><stop offset=".18" stop-color="#2A3292"/><stop offset=".95" stop-color="#1A1A59"/></linearGradient><linearGradient id="bD" x1="1640.35" x2="1640.29" y1="531.745" y2="531.745" gradientUnits="userSpaceOnUse"><stop offset=".18" stop-color="#2A3292"/><stop offset=".95" stop-color="#1A1A59"/></linearGradient><linearGradient id="bE" x1="2107.95" x2="2107.49" y1="609.468" y2="609.468" gradientUnits="userSpaceOnUse"><stop offset=".18" stop-color="#2A3292"/><stop offset=".95" stop-color="#1A1A59"/></linearGradient><linearGradient id="bF" x1="2108.36" x2="2107.9" y1="609.489" y2="609.489" gradientUnits="userSpaceOnUse"><stop offset=".18" stop-color="#2A3292"/><stop offset=".95" stop-color="#1A1A59"/></linearGradient><linearGradient id="bG" x1="1964.29" x2="1963.79" y1="602.829" y2="602.829" gradientUnits="userSpaceOnUse"><stop offset=".18" stop-color="#2A2A75"/><stop offset=".95" stop-color="#1A1A59"/></linearGradient><linearGradient id="bH" x1="1943.13" x2="1942.44" y1="606.406" y2="606.406" gradientUnits="userSpaceOnUse"><stop offset=".18" stop-color="#2A2A75"/><stop offset=".95" stop-color="#1A1A59"/></linearGradient><linearGradient id="bI" x1="1985.97" x2="1985.62" y1="598.939" y2="598.939" gradientUnits="userSpaceOnUse"><stop offset=".18" stop-color="#2A2A75"/><stop offset=".95" stop-color="#1A1A59"/></linearGradient><linearGradient id="bJ" x1="1971.26" x2="1970.78" y1="602.516" y2="602.516" gradientUnits="userSpaceOnUse"><stop offset=".18" stop-color="#2A2A75"/><stop offset=".95" stop-color="#1A1A59"/></linearGradient><linearGradient id="bK" x1="1985.99" x2="1985.96" y1="602.243" y2="602.243" gradientUnits="userSpaceOnUse"><stop offset=".18" stop-color="#2A2A75"/><stop offset=".95" stop-color="#1A1A59"/></linearGradient><linearGradient id="bL" x1="1985.65" x2="1985.3" y1="598.964" y2="598.964" gradientUnits="userSpaceOnUse"><stop offset=".18" stop-color="#2A2A75"/><stop offset=".95" stop-color="#1A1A59"/></linearGradient><linearGradient id="bM" x1="2032.62" x2="2032.36" y1="560.989" y2="560.989" gradientUnits="userSpaceOnUse"><stop offset=".18" stop-color="#2A2A75"/><stop offset=".95" stop-color="#1A1A59"/></linearGradient><linearGradient id="bN" x1="2006.66" x2="2006.34" y1="608.699" y2="608.699" gradientUnits="userSpaceOnUse"><stop offset=".18" stop-color="#2A2A75"/><stop offset=".95" stop-color="#1A1A59"/></linearGradient><linearGradient id="bO" x1="727.817" x2="1688.05" y1="593.5" y2="593.5" gradientUnits="userSpaceOnUse"><stop stop-color="#F5F0F1"/><stop offset="1" stop-color="#252525"/></linearGradient><linearGradient id="bP" x1="1531.83" x2="1531.83" y1="389.14" y2="794.943" gradientUnits="userSpaceOnUse"><stop stop-color="#676767"/><stop offset=".49" stop-color="#2C2C2D"/></linearGradient><linearGradient id="bQ" x1="1161.53" x2="1235.81" y1="362.958" y2="362.958" gradientUnits="userSpaceOnUse"><stop stop-color="#444343"/><stop offset="1" stop-color="#434243"/></linearGradient><linearGradient id="bR" x1="1044.5" x2="1163.79" y1="387.156" y2="387.156" gradientUnits="userSpaceOnUse"><stop stop-color="#F5F0F1"/><stop offset="1" stop-color="#225AD6"/></linearGradient><linearGradient id="bS" x1="1288.67" x2="1328.22" y1="366.82" y2="506.471" gradientUnits="userSpaceOnUse"><stop stop-color="#F5F0F1"/><stop offset=".39" stop-color="#4466EA"/></linearGradient><linearGradient id="bT" x1="1166.56" x2="1197.41" y1="406.957" y2="515.895" gradientUnits="userSpaceOnUse"><stop stop-color="#F5F0F1"/><stop offset=".39" stop-color="#4466EA"/></linearGradient><linearGradient id="bU" x1="1017.32" x2="1036.55" y1="449.643" y2="517.559" gradientUnits="userSpaceOnUse"><stop stop-color="#F5F0F1"/><stop offset=".69" stop-color="#4466EA"/></linearGradient><linearGradient id="bV" x1="836.009" x2="1468.48" y1="401.226" y2="401.226" gradientUnits="userSpaceOnUse"><stop stop-color="#F5F0F1"/><stop offset="1" stop-color="#252525"/></linearGradient><linearGradient id="bW" x1="1365.58" x2="1365.58" y1="266.623" y2="533.908" gradientUnits="userSpaceOnUse"><stop offset=".08" stop-color="#676767"/><stop offset="1" stop-color="#2C2C2D"/></linearGradient><linearGradient id="bX" x1="1576.74" x2="1576.74" y1="303.953" y2="532.405" gradientUnits="userSpaceOnUse"><stop offset=".08" stop-color="#676767"/><stop offset="1" stop-color="#2C2C2D"/></linearGradient><linearGradient id="bY" x1="1625.25" x2="1625.26" y1="339.514" y2="504.457" gradientUnits="userSpaceOnUse"><stop offset=".08" stop-color="#676767"/><stop offset="1" stop-color="#2C2C2D"/></linearGradient><linearGradient id="bZ" x1="1299.63" x2="1299.63" y1="232.393" y2="583.086" gradientUnits="userSpaceOnUse"><stop offset=".08" stop-color="#676767"/><stop offset="1" stop-color="#2C2C2D"/></linearGradient><linearGradient id="ca" x1="815.211" x2="815.212" y1="221.188" y2="578.697" gradientUnits="userSpaceOnUse"><stop offset=".08" stop-color="#676767"/><stop offset="1" stop-color="#2C2C2D"/></linearGradient><linearGradient id="cb" x1="678.18" x2="678.18" y1="582.991" y2="581.879" gradientUnits="userSpaceOnUse"><stop offset=".06" stop-color="#F5F0F1"/><stop offset=".87" stop-color="#225AD6"/></linearGradient><linearGradient id="cc" x1="1091.77" x2="1091.77" y1="472.7" y2="471.574" gradientUnits="userSpaceOnUse"><stop offset=".06" stop-color="#F5F0F1"/><stop offset=".87" stop-color="#225AD6"/></linearGradient><linearGradient id="cd" x1="1186.85" x2="1186.85" y1="477.202" y2="476.076" gradientUnits="userSpaceOnUse"><stop offset=".06" stop-color="#F5F0F1"/><stop offset=".87" stop-color="#225AD6"/></linearGradient><linearGradient id="ce" x1="1065.87" x2="1068.13" y1="580.189" y2="580.189" gradientUnits="userSpaceOnUse"><stop offset=".18" stop-color="#2A3292"/><stop offset=".95" stop-color="#1A1A59"/></linearGradient><linearGradient id="cf" x1="513.31" x2="514.436" y1="473.262" y2="473.262" gradientUnits="userSpaceOnUse"><stop offset=".18" stop-color="#2A3292"/><stop offset=".95" stop-color="#1A1A59"/></linearGradient></defs></svg>