<svg xmlns="http://www.w3.org/2000/svg" xmlns:xlink="http://www.w3.org/1999/xlink" style="width: 100%; height: 100%" viewBox="0 0 50 50" preserveAspectRatio="none" width="50" height="50"><defs><svg width="50" height="50" viewBox="0 0 50 50" fill="none" xmlns="http://www.w3.org/2000/svg" id="svg-1261774906_25067">
<g filter="url(#svg-1261774906_25067_filter0_d_1157_66319)" fill="none">
<path d="M23.0031 12.0268L22.2656 12.8518L27.4781 19.7612L32.3844 17.1987C32.1266 15.6456 31.6047 14.119 30.9828 12.7253C29.5328 9.48153 25.3688 9.3784 23.0031 12.0268Z" fill="url(&quot;#svg-1261774906_25067_paint0_radial_1157_66319&quot;)"></path>
<path d="M23.0031 12.0268L22.2656 12.8518L27.4781 19.7612L32.3844 17.1987C32.1266 15.6456 31.6047 14.119 30.9828 12.7253C29.5328 9.48153 25.3688 9.3784 23.0031 12.0268Z" fill="url(&quot;#svg-1261774906_25067_paint1_radial_1157_66319&quot;)"></path>
<path d="M23.0031 12.0268L22.2656 12.8518L27.4781 19.7612L32.3844 17.1987C32.1266 15.6456 31.6047 14.119 30.9828 12.7253C29.5328 9.48153 25.3688 9.3784 23.0031 12.0268Z" fill="url(&quot;#svg-1261774906_25067_paint2_linear_1157_66319&quot;)"></path>
</g>
<g filter="url(#svg-1261774906_25067_filter1_d_1157_66319)" fill="none">
<path d="M14.7576 4.40662L9.11694 10.0379L8.77632 12.4879L6.29507 12.8535L3.47476 15.6676C3.11463 16.0238 2.90851 16.5071 2.90063 17.0136C2.89274 17.5202 3.08371 18.0096 3.43257 18.3769C7.25444 22.391 14.5638 29.8566 21.2638 36.28C31.8482 46.4238 40.5138 46.5941 41.7107 46.741C42.5279 46.841 43.2982 46.6925 43.492 46.5941C44.6904 45.9957 46.9388 44.4629 46.6435 42.8832C46.2763 40.93 45.0966 40.3675 42.981 38.7582C41.7076 37.7894 40.7013 35.93 40.4185 35.2301L32.6841 17.0066C32.5529 16.6972 32.3566 16.4197 32.1086 16.1929C31.8606 15.966 31.5668 15.7952 31.247 15.6919C30.9272 15.5886 30.5889 15.5553 30.2551 15.5942C29.9212 15.6332 29.5997 15.7434 29.3123 15.9176L28.7826 16.2394C28.4807 16.4223 28.1258 16.4976 27.7757 16.4531C27.4256 16.4085 27.1009 16.2468 26.8545 15.9941L19.8998 8.86912C19.7001 8.66477 19.5604 8.40961 19.4956 8.13137C19.4309 7.85314 19.4437 7.56248 19.5326 7.291L19.9701 5.95662C20.206 5.24881 20.2466 3.74256 18.5669 3.33162C16.8873 2.92225 15.3279 3.8785 14.7576 4.40662Z" fill="url(&quot;#svg-1261774906_25067_paint3_linear_1157_66319&quot;)"></path>
<path d="M14.7576 4.40662L9.11694 10.0379L8.77632 12.4879L6.29507 12.8535L3.47476 15.6676C3.11463 16.0238 2.90851 16.5071 2.90063 17.0136C2.89274 17.5202 3.08371 18.0096 3.43257 18.3769C7.25444 22.391 14.5638 29.8566 21.2638 36.28C31.8482 46.4238 40.5138 46.5941 41.7107 46.741C42.5279 46.841 43.2982 46.6925 43.492 46.5941C44.6904 45.9957 46.9388 44.4629 46.6435 42.8832C46.2763 40.93 45.0966 40.3675 42.981 38.7582C41.7076 37.7894 40.7013 35.93 40.4185 35.2301L32.6841 17.0066C32.5529 16.6972 32.3566 16.4197 32.1086 16.1929C31.8606 15.966 31.5668 15.7952 31.247 15.6919C30.9272 15.5886 30.5889 15.5553 30.2551 15.5942C29.9212 15.6332 29.5997 15.7434 29.3123 15.9176L28.7826 16.2394C28.4807 16.4223 28.1258 16.4976 27.7757 16.4531C27.4256 16.4085 27.1009 16.2468 26.8545 15.9941L19.8998 8.86912C19.7001 8.66477 19.5604 8.40961 19.4956 8.13137C19.4309 7.85314 19.4437 7.56248 19.5326 7.291L19.9701 5.95662C20.206 5.24881 20.2466 3.74256 18.5669 3.33162C16.8873 2.92225 15.3279 3.8785 14.7576 4.40662Z" fill="url(&quot;#svg-1261774906_25067_paint4_linear_1157_66319&quot;)"></path>
<path d="M14.7576 4.40662L9.11694 10.0379L8.77632 12.4879L6.29507 12.8535L3.47476 15.6676C3.11463 16.0238 2.90851 16.5071 2.90063 17.0136C2.89274 17.5202 3.08371 18.0096 3.43257 18.3769C7.25444 22.391 14.5638 29.8566 21.2638 36.28C31.8482 46.4238 40.5138 46.5941 41.7107 46.741C42.5279 46.841 43.2982 46.6925 43.492 46.5941C44.6904 45.9957 46.9388 44.4629 46.6435 42.8832C46.2763 40.93 45.0966 40.3675 42.981 38.7582C41.7076 37.7894 40.7013 35.93 40.4185 35.2301L32.6841 17.0066C32.5529 16.6972 32.3566 16.4197 32.1086 16.1929C31.8606 15.966 31.5668 15.7952 31.247 15.6919C30.9272 15.5886 30.5889 15.5553 30.2551 15.5942C29.9212 15.6332 29.5997 15.7434 29.3123 15.9176L28.7826 16.2394C28.4807 16.4223 28.1258 16.4976 27.7757 16.4531C27.4256 16.4085 27.1009 16.2468 26.8545 15.9941L19.8998 8.86912C19.7001 8.66477 19.5604 8.40961 19.4956 8.13137C19.4309 7.85314 19.4437 7.56248 19.5326 7.291L19.9701 5.95662C20.206 5.24881 20.2466 3.74256 18.5669 3.33162C16.8873 2.92225 15.3279 3.8785 14.7576 4.40662Z" fill="url(&quot;#svg-1261774906_25067_paint5_linear_1157_66319&quot;)"></path>
</g>
<g filter="url(#svg-1261774906_25067_filter2_f_1157_66319)" fill="none">
<path d="M36.3273 37.6701L28.5273 17.2701L31.7492 17.0264L40.643 38.4467C40.9242 39.1186 41.4289 39.6732 42.0758 40.0092C42.7508 40.3623 43.568 40.7826 44.2008 41.0982C45.2164 41.6076 45.4711 42.7436 45.4711 43.2467L38.7992 40.2779C38.2362 40.027 37.7282 39.6675 37.3044 39.22C36.8805 38.7726 36.5474 38.2459 36.3273 37.6701Z" fill="url(&quot;#svg-1261774906_25067_paint6_linear_1157_66319&quot;)"></path>
</g>
<g filter="url(#svg-1261774906_25067_filter3_f_1157_66319)" fill="none">
<path d="M33.643 19.6143H30.2852C29.3618 19.6143 28.6133 20.3628 28.6133 21.2861V21.2877C28.6133 22.211 29.3618 22.9596 30.2852 22.9596H33.643C34.5663 22.9596 35.3148 22.211 35.3148 21.2877V21.2861C35.3148 20.3628 34.5663 19.6143 33.643 19.6143Z" fill="url(&quot;#svg-1261774906_25067_paint7_linear_1157_66319&quot;)"></path>
</g>
<g filter="url(#svg-1261774906_25067_filter4_f_1157_66319)" fill="none">
<path d="M36.1332 24.8779H32.7754C31.852 24.8779 31.1035 25.6265 31.1035 26.5498V26.5514C31.1035 27.4747 31.852 28.2232 32.7754 28.2232H36.1332C37.0566 28.2232 37.8051 27.4747 37.8051 26.5514V26.5498C37.8051 25.6265 37.0566 24.8779 36.1332 24.8779Z" fill="url(&quot;#svg-1261774906_25067_paint8_linear_1157_66319&quot;)"></path>
</g>
<g filter="url(#svg-1261774906_25067_filter5_f_1157_66319)" fill="none">
<path d="M38.2201 30.4053H34.8623C33.939 30.4053 33.1904 31.1538 33.1904 32.0771V32.0787C33.1904 33.0021 33.939 33.7506 34.8623 33.7506H38.2201C39.1435 33.7506 39.892 33.0021 39.892 32.0787V32.0771C39.892 31.1538 39.1435 30.4053 38.2201 30.4053Z" fill="url(&quot;#svg-1261774906_25067_paint9_linear_1157_66319&quot;)"></path>
</g>
<g filter="url(#svg-1261774906_25067_filter6_d_1157_66319)" fill="none">
<path d="M34.5578 19.3701H30.5047C29.5744 19.3701 28.8203 20.1242 28.8203 21.0545C28.8203 21.9847 29.5744 22.7389 30.5047 22.7389H34.5578C35.4881 22.7389 36.2422 21.9847 36.2422 21.0545C36.2422 20.1242 35.4881 19.3701 34.5578 19.3701Z" fill="url(&quot;#svg-1261774906_25067_paint10_radial_1157_66319&quot;)"></path>
<path d="M34.5578 19.3701H30.5047C29.5744 19.3701 28.8203 20.1242 28.8203 21.0545C28.8203 21.9847 29.5744 22.7389 30.5047 22.7389H34.5578C35.4881 22.7389 36.2422 21.9847 36.2422 21.0545C36.2422 20.1242 35.4881 19.3701 34.5578 19.3701Z" fill="url(&quot;#svg-1261774906_25067_paint11_radial_1157_66319&quot;)"></path>
</g>
<g filter="url(#svg-1261774906_25067_filter7_d_1157_66319)" fill="none">
<path d="M37.0725 24.5947H33.0193C32.0891 24.5947 31.335 25.3488 31.335 26.2791C31.335 27.2094 32.0891 27.9635 33.0193 27.9635H37.0725C38.0027 27.9635 38.7568 27.2094 38.7568 26.2791C38.7568 25.3488 38.0027 24.5947 37.0725 24.5947Z" fill="url(&quot;#svg-1261774906_25067_paint12_radial_1157_66319&quot;)"></path>
<path d="M37.0725 24.5947H33.0193C32.0891 24.5947 31.335 25.3488 31.335 26.2791C31.335 27.2094 32.0891 27.9635 33.0193 27.9635H37.0725C38.0027 27.9635 38.7568 27.2094 38.7568 26.2791C38.7568 25.3488 38.0027 24.5947 37.0725 24.5947Z" fill="url(&quot;#svg-1261774906_25067_paint13_radial_1157_66319&quot;)"></path>
</g>
<g filter="url(#svg-1261774906_25067_filter8_d_1157_66319)" fill="none">
<path d="M39.0256 30.1367H34.9725C34.0422 30.1367 33.2881 30.8908 33.2881 31.8211C33.2881 32.7513 34.0422 33.5055 34.9725 33.5055H39.0256C39.9558 33.5055 40.71 32.7513 40.71 31.8211C40.71 30.8908 39.9558 30.1367 39.0256 30.1367Z" fill="url(&quot;#svg-1261774906_25067_paint14_radial_1157_66319&quot;)"></path>
<path d="M39.0256 30.1367H34.9725C34.0422 30.1367 33.2881 30.8908 33.2881 31.8211C33.2881 32.7513 34.0422 33.5055 34.9725 33.5055H39.0256C39.9558 33.5055 40.71 32.7513 40.71 31.8211C40.71 30.8908 39.9558 30.1367 39.0256 30.1367Z" fill="url(&quot;#svg-1261774906_25067_paint15_radial_1157_66319&quot;)"></path>
</g>
<g filter="url(#svg-1261774906_25067_filter9_d_1157_66319)" fill="none">
<path d="M45.8115 44.9238C40.7006 44.2909 34.4115 42.8972 29.2599 38.3456C26.4068 35.7003 25.5756 33.83 24.5724 31.58C23.7881 29.8144 22.8974 27.8144 20.849 25.0222C17.049 19.8456 12.4365 15.3206 9.6068 12.5409C9.07399 12.0175 8.60368 11.5566 8.21305 11.1644C8.19853 11.1497 8.18125 11.1381 8.16221 11.1302C8.14317 11.1222 8.12274 11.1182 8.10212 11.1182C8.08149 11.1182 8.06107 11.1222 8.04203 11.1302C8.02298 11.1381 8.0057 11.1497 7.99118 11.1644L3.47399 15.6722C3.11433 16.0284 2.90851 16.5113 2.90063 17.0175C2.89274 17.5236 3.08342 18.0127 3.4318 18.38C7.25368 22.3956 14.5631 29.8613 21.2631 36.2847C31.1959 45.8034 39.4396 46.5409 41.4052 46.7159C41.5349 46.7269 41.6365 46.7363 41.7099 46.7456C42.5271 46.8456 43.2974 46.6972 43.4912 46.5988C44.1474 46.2706 45.1162 45.6644 45.8115 44.9238Z" fill="url(&quot;#svg-1261774906_25067_paint16_linear_1157_66319&quot;)"></path>
<path d="M45.8115 44.9238C40.7006 44.2909 34.4115 42.8972 29.2599 38.3456C26.4068 35.7003 25.5756 33.83 24.5724 31.58C23.7881 29.8144 22.8974 27.8144 20.849 25.0222C17.049 19.8456 12.4365 15.3206 9.6068 12.5409C9.07399 12.0175 8.60368 11.5566 8.21305 11.1644C8.19853 11.1497 8.18125 11.1381 8.16221 11.1302C8.14317 11.1222 8.12274 11.1182 8.10212 11.1182C8.08149 11.1182 8.06107 11.1222 8.04203 11.1302C8.02298 11.1381 8.0057 11.1497 7.99118 11.1644L3.47399 15.6722C3.11433 16.0284 2.90851 16.5113 2.90063 17.0175C2.89274 17.5236 3.08342 18.0127 3.4318 18.38C7.25368 22.3956 14.5631 29.8613 21.2631 36.2847C31.1959 45.8034 39.4396 46.5409 41.4052 46.7159C41.5349 46.7269 41.6365 46.7363 41.7099 46.7456C42.5271 46.8456 43.2974 46.6972 43.4912 46.5988C44.1474 46.2706 45.1162 45.6644 45.8115 44.9238Z" fill="url(&quot;#svg-1261774906_25067_paint17_linear_1157_66319&quot;)"></path>
</g>
<path d="M8.20053 10.952C8.18575 10.9666 8.17405 10.9841 8.16611 11.0033C8.15817 11.0226 8.15416 11.0432 8.1543 11.064C8.15445 11.0848 8.15875 11.1054 8.16696 11.1245C8.17516 11.1436 8.18711 11.1609 8.2021 11.1754L8.27085 11.241C8.8396 11.791 9.36772 12.302 9.60835 12.5379C12.4396 15.316 17.0505 19.841 20.8505 25.0176C21.4302 25.8098 21.9177 26.5379 22.3365 27.2145L22.0396 21.9145C21.9104 19.6166 20.9405 17.4465 19.3146 15.8176L11.3365 7.82227L8.20053 10.952Z" fill="url(&quot;#svg-1261774906_25067_paint18_linear_1157_66319&quot;)"></path>
<path d="M8.20053 10.952C8.18575 10.9666 8.17405 10.9841 8.16611 11.0033C8.15817 11.0226 8.15416 11.0432 8.1543 11.064C8.15445 11.0848 8.15875 11.1054 8.16696 11.1245C8.17516 11.1436 8.18711 11.1609 8.2021 11.1754L8.27085 11.241C8.8396 11.791 9.36772 12.302 9.60835 12.5379C12.4396 15.316 17.0505 19.841 20.8505 25.0176C21.4302 25.8098 21.9177 26.5379 22.3365 27.2145L22.0396 21.9145C21.9104 19.6166 20.9405 17.4465 19.3146 15.8176L11.3365 7.82227L8.20053 10.952Z" fill="url(&quot;#svg-1261774906_25067_paint19_linear_1157_66319&quot;)"></path>
<g filter="url(#svg-1261774906_25067_filter10_f_1157_66319)" fill="none">
<path d="M18.8594 3.74512C19.2266 4.03105 19.8656 4.84824 19.4953 5.84512C19.3469 6.24355 19.2094 6.64199 19.0891 7.00762C18.9588 7.4093 18.9398 7.83879 19.0342 8.25039C19.1285 8.662 19.3327 9.04032 19.625 9.34512L26.3766 16.4357C26.7826 16.8624 27.3344 17.1205 27.9222 17.1587C28.5099 17.1969 29.0905 17.0124 29.5484 16.642L29.7984 16.4404C30.025 16.2529 30.6516 15.992 31.3359 16.4404" stroke="url(&quot;#svg-1261774906_25067_paint20_radial_1157_66319&quot;)" stroke-width="0.25px" fill="none"></path>
<path d="M18.8594 3.74512C19.2266 4.03105 19.8656 4.84824 19.4953 5.84512C19.3469 6.24355 19.2094 6.64199 19.0891 7.00762C18.9588 7.4093 18.9398 7.83879 19.0342 8.25039C19.1285 8.662 19.3327 9.04032 19.625 9.34512L26.3766 16.4357C26.7826 16.8624 27.3344 17.1205 27.9222 17.1587C28.5099 17.1969 29.0905 17.0124 29.5484 16.642L29.7984 16.4404C30.025 16.2529 30.6516 15.992 31.3359 16.4404" stroke="url(&quot;#svg-1261774906_25067_paint21_radial_1157_66319&quot;)" stroke-width="0.25px" fill="none"></path>
</g>
<g filter="url(#svg-1261774906_25067_filter11_f_1157_66319)" fill="none">
<path d="M31.0664 20.7861H35.3148" stroke="url(&quot;#svg-1261774906_25067_paint22_linear_1157_66319&quot;)" stroke-width="0.65px" stroke-linecap="round" fill="none"></path>
</g>
<g filter="url(#svg-1261774906_25067_filter12_f_1157_66319)" fill="none">
<path d="M33.5566 25.9863H37.8035" stroke="url(&quot;#svg-1261774906_25067_paint23_linear_1157_66319&quot;)" stroke-width="0.65px" stroke-linecap="round" fill="none"></path>
</g>
<g filter="url(#svg-1261774906_25067_filter13_f_1157_66319)" fill="none">
<path d="M35.3145 31.5283H39.5613" stroke="url(&quot;#svg-1261774906_25067_paint24_linear_1157_66319&quot;)" stroke-width="0.65px" stroke-linecap="round" fill="none"></path>
</g>
<defs>
<filter id="svg-1261774906_25067_filter0_d_1157_66319" x="21.6656" y="9.80625" width="11.1191" height="10.605" filterUnits="userSpaceOnUse" color-interpolation-filters="sRGB">
<feFlood flood-opacity="0" result="BackgroundImageFix"></feFlood>
<feColorMatrix in="SourceAlpha" type="matrix" values="0 0 0 0 0 0 0 0 0 0 0 0 0 0 0 0 0 0 127 0" result="hardAlpha"></feColorMatrix>
<feOffset dx="-0.1" dy="0.15"></feOffset>
<feGaussianBlur stdDeviation="0.25"></feGaussianBlur>
<feComposite in2="hardAlpha" operator="out"></feComposite>
<feColorMatrix type="matrix" values="0 0 0 0 0.639216 0 0 0 0 0.623529 0 0 0 0 0.756863 0 0 0 1 0"></feColorMatrix>
<feBlend mode="normal" in2="BackgroundImageFix" result="effect1_dropShadow_1157_66319"></feBlend>
<feBlend mode="normal" in="SourceGraphic" in2="effect1_dropShadow_1157_66319" result="shape"></feBlend>
</filter>
<filter id="svg-1261774906_25067_filter1_d_1157_66319" x="2.65039" y="2.88242" width="44.7695" height="44.5417" filterUnits="userSpaceOnUse" color-interpolation-filters="sRGB">
<feFlood flood-opacity="0" result="BackgroundImageFix"></feFlood>
<feColorMatrix in="SourceAlpha" type="matrix" values="0 0 0 0 0 0 0 0 0 0 0 0 0 0 0 0 0 0 127 0" result="hardAlpha"></feColorMatrix>
<feOffset dx="0.25" dy="0.15"></feOffset>
<feGaussianBlur stdDeviation="0.25"></feGaussianBlur>
<feComposite in2="hardAlpha" operator="out"></feComposite>
<feColorMatrix type="matrix" values="0 0 0 0 0.521569 0 0 0 0 0.505882 0 0 0 0 0.564706 0 0 0 1 0"></feColorMatrix>
<feBlend mode="normal" in2="BackgroundImageFix" result="effect1_dropShadow_1157_66319"></feBlend>
<feBlend mode="normal" in="SourceGraphic" in2="effect1_dropShadow_1157_66319" result="shape"></feBlend>
</filter>
<filter id="svg-1261774906_25067_filter2_f_1157_66319" x="27.0273" y="15.5264" width="19.9434" height="29.2202" filterUnits="userSpaceOnUse" color-interpolation-filters="sRGB">
<feFlood flood-opacity="0" result="BackgroundImageFix"></feFlood>
<feBlend mode="normal" in="SourceGraphic" in2="BackgroundImageFix" result="shape"></feBlend>
<feGaussianBlur stdDeviation="0.75" result="effect1_foregroundBlur_1157_66319"></feGaussianBlur>
</filter>
<filter id="svg-1261774906_25067_filter3_f_1157_66319" x="28.3633" y="19.3643" width="7.20117" height="3.84521" filterUnits="userSpaceOnUse" color-interpolation-filters="sRGB">
<feFlood flood-opacity="0" result="BackgroundImageFix"></feFlood>
<feBlend mode="normal" in="SourceGraphic" in2="BackgroundImageFix" result="shape"></feBlend>
<feGaussianBlur stdDeviation="0.125" result="effect1_foregroundBlur_1157_66319"></feGaussianBlur>
</filter>
<filter id="svg-1261774906_25067_filter4_f_1157_66319" x="30.8535" y="24.6279" width="7.20117" height="3.84521" filterUnits="userSpaceOnUse" color-interpolation-filters="sRGB">
<feFlood flood-opacity="0" result="BackgroundImageFix"></feFlood>
<feBlend mode="normal" in="SourceGraphic" in2="BackgroundImageFix" result="shape"></feBlend>
<feGaussianBlur stdDeviation="0.125" result="effect1_foregroundBlur_1157_66319"></feGaussianBlur>
</filter>
<filter id="svg-1261774906_25067_filter5_f_1157_66319" x="32.9404" y="30.1553" width="7.20117" height="3.84521" filterUnits="userSpaceOnUse" color-interpolation-filters="sRGB">
<feFlood flood-opacity="0" result="BackgroundImageFix"></feFlood>
<feBlend mode="normal" in="SourceGraphic" in2="BackgroundImageFix" result="shape"></feBlend>
<feGaussianBlur stdDeviation="0.125" result="effect1_foregroundBlur_1157_66319"></feGaussianBlur>
</filter>
<filter id="svg-1261774906_25067_filter6_d_1157_66319" x="28.3203" y="18.6701" width="8.92188" height="4.86865" filterUnits="userSpaceOnUse" color-interpolation-filters="sRGB">
<feFlood flood-opacity="0" result="BackgroundImageFix"></feFlood>
<feColorMatrix in="SourceAlpha" type="matrix" values="0 0 0 0 0 0 0 0 0 0 0 0 0 0 0 0 0 0 127 0" result="hardAlpha"></feColorMatrix>
<feOffset dx="0.25" dy="0.05"></feOffset>
<feGaussianBlur stdDeviation="0.375"></feGaussianBlur>
<feComposite in2="hardAlpha" operator="out"></feComposite>
<feColorMatrix type="matrix" values="0 0 0 0 0.654902 0 0 0 0 0.619608 0 0 0 0 0.705882 0 0 0 1 0"></feColorMatrix>
<feBlend mode="normal" in2="BackgroundImageFix" result="effect1_dropShadow_1157_66319"></feBlend>
<feBlend mode="normal" in="SourceGraphic" in2="effect1_dropShadow_1157_66319" result="shape"></feBlend>
</filter>
<filter id="svg-1261774906_25067_filter7_d_1157_66319" x="30.835" y="23.8947" width="8.92188" height="4.86865" filterUnits="userSpaceOnUse" color-interpolation-filters="sRGB">
<feFlood flood-opacity="0" result="BackgroundImageFix"></feFlood>
<feColorMatrix in="SourceAlpha" type="matrix" values="0 0 0 0 0 0 0 0 0 0 0 0 0 0 0 0 0 0 127 0" result="hardAlpha"></feColorMatrix>
<feOffset dx="0.25" dy="0.05"></feOffset>
<feGaussianBlur stdDeviation="0.375"></feGaussianBlur>
<feComposite in2="hardAlpha" operator="out"></feComposite>
<feColorMatrix type="matrix" values="0 0 0 0 0.654902 0 0 0 0 0.619608 0 0 0 0 0.705882 0 0 0 1 0"></feColorMatrix>
<feBlend mode="normal" in2="BackgroundImageFix" result="effect1_dropShadow_1157_66319"></feBlend>
<feBlend mode="normal" in="SourceGraphic" in2="effect1_dropShadow_1157_66319" result="shape"></feBlend>
</filter>
<filter id="svg-1261774906_25067_filter8_d_1157_66319" x="32.7881" y="29.4367" width="8.92188" height="4.86865" filterUnits="userSpaceOnUse" color-interpolation-filters="sRGB">
<feFlood flood-opacity="0" result="BackgroundImageFix"></feFlood>
<feColorMatrix in="SourceAlpha" type="matrix" values="0 0 0 0 0 0 0 0 0 0 0 0 0 0 0 0 0 0 127 0" result="hardAlpha"></feColorMatrix>
<feOffset dx="0.25" dy="0.05"></feOffset>
<feGaussianBlur stdDeviation="0.375"></feGaussianBlur>
<feComposite in2="hardAlpha" operator="out"></feComposite>
<feColorMatrix type="matrix" values="0 0 0 0 0.654902 0 0 0 0 0.619608 0 0 0 0 0.705882 0 0 0 1 0"></feColorMatrix>
<feBlend mode="normal" in2="BackgroundImageFix" result="effect1_dropShadow_1157_66319"></feBlend>
<feBlend mode="normal" in="SourceGraphic" in2="effect1_dropShadow_1157_66319" result="shape"></feBlend>
</filter>
<filter id="svg-1261774906_25067_filter9_d_1157_66319" x="2.05039" y="9.61816" width="44.9111" height="37.6606" filterUnits="userSpaceOnUse" color-interpolation-filters="sRGB">
<feFlood flood-opacity="0" result="BackgroundImageFix"></feFlood>
<feColorMatrix in="SourceAlpha" type="matrix" values="0 0 0 0 0 0 0 0 0 0 0 0 0 0 0 0 0 0 127 0" result="hardAlpha"></feColorMatrix>
<feOffset dx="0.15" dy="-0.5"></feOffset>
<feGaussianBlur stdDeviation="0.5"></feGaussianBlur>
<feComposite in2="hardAlpha" operator="out"></feComposite>
<feColorMatrix type="matrix" values="0 0 0 0 0.772549 0 0 0 0 0.54902 0 0 0 0 0.952941 0 0 0 1 0"></feColorMatrix>
<feBlend mode="normal" in2="BackgroundImageFix" result="effect1_dropShadow_1157_66319"></feBlend>
<feBlend mode="normal" in="SourceGraphic" in2="effect1_dropShadow_1157_66319" result="shape"></feBlend>
</filter>
<filter id="svg-1261774906_25067_filter10_f_1157_66319" x="18.2822" y="3.14648" width="13.6221" height="14.6421" filterUnits="userSpaceOnUse" color-interpolation-filters="sRGB">
<feFlood flood-opacity="0" result="BackgroundImageFix"></feFlood>
<feBlend mode="normal" in="SourceGraphic" in2="BackgroundImageFix" result="shape"></feBlend>
<feGaussianBlur stdDeviation="0.25" result="effect1_foregroundBlur_1157_66319"></feGaussianBlur>
</filter>
<filter id="svg-1261774906_25067_filter11_f_1157_66319" x="30.3412" y="20.0612" width="5.69844" height="1.4499" filterUnits="userSpaceOnUse" color-interpolation-filters="sRGB">
<feFlood flood-opacity="0" result="BackgroundImageFix"></feFlood>
<feBlend mode="normal" in="SourceGraphic" in2="BackgroundImageFix" result="shape"></feBlend>
<feGaussianBlur stdDeviation="0.2" result="effect1_foregroundBlur_1157_66319"></feGaussianBlur>
</filter>
<filter id="svg-1261774906_25067_filter12_f_1157_66319" x="32.8314" y="25.2614" width="5.69746" height="1.4499" filterUnits="userSpaceOnUse" color-interpolation-filters="sRGB">
<feFlood flood-opacity="0" result="BackgroundImageFix"></feFlood>
<feBlend mode="normal" in="SourceGraphic" in2="BackgroundImageFix" result="shape"></feBlend>
<feGaussianBlur stdDeviation="0.2" result="effect1_foregroundBlur_1157_66319"></feGaussianBlur>
</filter>
<filter id="svg-1261774906_25067_filter13_f_1157_66319" x="34.5893" y="30.8034" width="5.69746" height="1.4499" filterUnits="userSpaceOnUse" color-interpolation-filters="sRGB">
<feFlood flood-opacity="0" result="BackgroundImageFix"></feFlood>
<feBlend mode="normal" in="SourceGraphic" in2="BackgroundImageFix" result="shape"></feBlend>
<feGaussianBlur stdDeviation="0.2" result="effect1_foregroundBlur_1157_66319"></feGaussianBlur>
</filter>
<radialGradient id="svg-1261774906_25067_paint0_radial_1157_66319" cx="0" cy="0" r="1" gradientUnits="userSpaceOnUse" gradientTransform="translate(31.4563 14.1219) rotate(160.534) scale(6.00745 8.52459)">
<stop stop-color="#8379B9"></stop>
<stop offset="1" stop-color="#67579A"></stop>
</radialGradient>
<radialGradient id="svg-1261774906_25067_paint1_radial_1157_66319" cx="0" cy="0" r="1" gradientUnits="userSpaceOnUse" gradientTransform="translate(29.3576 17.8334) rotate(159.605) scale(4.06331 3.3457)">
<stop offset="0.501" stop-color="#5D4786"></stop>
<stop offset="1" stop-color="#5D4786" stop-opacity="0"></stop>
</radialGradient>
<linearGradient id="svg-1261774906_25067_paint2_linear_1157_66319" x1="25.8906" y1="15.9284" x2="27.9422" y2="13.1456" gradientUnits="userSpaceOnUse">
<stop offset="0.066" stop-color="#5D4786"></stop>
<stop offset="1" stop-color="#5D4786" stop-opacity="0"></stop>
</linearGradient>
<linearGradient id="svg-1261774906_25067_paint3_linear_1157_66319" x1="35.4123" y1="42.1504" x2="15.881" y2="6.3113" gradientUnits="userSpaceOnUse">
<stop stop-color="#C0A6DC"></stop>
<stop offset="1" stop-color="#A591BA"></stop>
</linearGradient>
<linearGradient id="svg-1261774906_25067_paint4_linear_1157_66319" x1="13.6357" y1="5.43162" x2="22.3263" y2="13.3426" gradientUnits="userSpaceOnUse">
<stop stop-color="#77757A"></stop>
<stop offset="1" stop-color="#77757A" stop-opacity="0"></stop>
</linearGradient>
<linearGradient id="svg-1261774906_25067_paint5_linear_1157_66319" x1="12.3654" y1="5.48162" x2="14.1716" y2="7.18944" gradientUnits="userSpaceOnUse">
<stop stop-color="#8B8B8C"></stop>
<stop offset="1" stop-color="#8B8B8C" stop-opacity="0"></stop>
</linearGradient>
<linearGradient id="svg-1261774906_25067_paint6_linear_1157_66319" x1="31.2133" y1="18.0279" x2="42.0523" y2="42.7842" gradientUnits="userSpaceOnUse">
<stop stop-color="#C9C5D2"></stop>
<stop offset="1" stop-color="#DBD7E5"></stop>
</linearGradient>
<linearGradient id="svg-1261774906_25067_paint7_linear_1157_66319" x1="28.8773" y1="22.0377" x2="32.0008" y2="22.808" gradientUnits="userSpaceOnUse">
<stop stop-color="#8E6AAE"></stop>
<stop offset="1" stop-color="#827C8D"></stop>
</linearGradient>
<linearGradient id="svg-1261774906_25067_paint8_linear_1157_66319" x1="31.3691" y1="27.3014" x2="34.4926" y2="28.0717" gradientUnits="userSpaceOnUse">
<stop stop-color="#8E6AAE"></stop>
<stop offset="1" stop-color="#827C8D"></stop>
</linearGradient>
<linearGradient id="svg-1261774906_25067_paint9_linear_1157_66319" x1="33.4561" y1="32.8287" x2="36.5779" y2="33.599" gradientUnits="userSpaceOnUse">
<stop stop-color="#8E6AAE"></stop>
<stop offset="1" stop-color="#827C8D"></stop>
</linearGradient>
<radialGradient id="svg-1261774906_25067_paint10_radial_1157_66319" cx="0" cy="0" r="1" gradientUnits="userSpaceOnUse" gradientTransform="translate(29.5531 22.7404) scale(6.68945 3.15437)">
<stop stop-color="#CA98F6"></stop>
<stop offset="1" stop-color="#DFDEE6"></stop>
</radialGradient>
<radialGradient id="svg-1261774906_25067_paint11_radial_1157_66319" cx="0" cy="0" r="1" gradientUnits="userSpaceOnUse" gradientTransform="translate(29.1141 20.1264) rotate(30.8812) scale(2.90158 3.17767)">
<stop stop-color="#B9A5D0"></stop>
<stop offset="1" stop-color="#B9A5D0" stop-opacity="0"></stop>
</radialGradient>
<radialGradient id="svg-1261774906_25067_paint12_radial_1157_66319" cx="0" cy="0" r="1" gradientUnits="userSpaceOnUse" gradientTransform="translate(32.0662 27.9635) scale(6.68945 3.15437)">
<stop stop-color="#CA98F6"></stop>
<stop offset="1" stop-color="#DFDEE6"></stop>
</radialGradient>
<radialGradient id="svg-1261774906_25067_paint13_radial_1157_66319" cx="0" cy="0" r="1" gradientUnits="userSpaceOnUse" gradientTransform="translate(31.6271 25.351) rotate(30.8812) scale(2.90158 3.17767)">
<stop stop-color="#B9A5D0"></stop>
<stop offset="1" stop-color="#B9A5D0" stop-opacity="0"></stop>
</radialGradient>
<radialGradient id="svg-1261774906_25067_paint14_radial_1157_66319" cx="0" cy="0" r="1" gradientUnits="userSpaceOnUse" gradientTransform="translate(34.0193 33.5055) scale(6.68945 3.15437)">
<stop stop-color="#CA98F6"></stop>
<stop offset="1" stop-color="#DFDEE6"></stop>
</radialGradient>
<radialGradient id="svg-1261774906_25067_paint15_radial_1157_66319" cx="0" cy="0" r="1" gradientUnits="userSpaceOnUse" gradientTransform="translate(33.5803 30.893) rotate(30.8812) scale(2.90158 3.17767)">
<stop stop-color="#B9A5D0"></stop>
<stop offset="1" stop-color="#B9A5D0" stop-opacity="0"></stop>
</radialGradient>
<linearGradient id="svg-1261774906_25067_paint16_linear_1157_66319" x1="29.1615" y1="43.3269" x2="5.43181" y2="18.0347" gradientUnits="userSpaceOnUse">
<stop stop-color="#E5C7FF"></stop>
<stop offset="1" stop-color="#D1BEE6"></stop>
</linearGradient>
<linearGradient id="svg-1261774906_25067_paint17_linear_1157_66319" x1="4.65055" y1="13.4441" x2="10.9006" y2="19.6941" gradientUnits="userSpaceOnUse">
<stop stop-color="#A3A2A5"></stop>
<stop offset="1" stop-color="#BEB4CD" stop-opacity="0"></stop>
</linearGradient>
<linearGradient id="svg-1261774906_25067_paint18_linear_1157_66319" x1="15.213" y1="12.7566" x2="16.4677" y2="25.9395" gradientUnits="userSpaceOnUse">
<stop stop-color="#5F5796"></stop>
<stop offset="0.599" stop-color="#714699"></stop>
</linearGradient>
<linearGradient id="svg-1261774906_25067_paint19_linear_1157_66319" x1="9.33803" y1="9.63164" x2="10.5099" y2="10.7051" gradientUnits="userSpaceOnUse">
<stop stop-color="#73738B"></stop>
<stop offset="1" stop-color="#73738B" stop-opacity="0"></stop>
</linearGradient>
<radialGradient id="svg-1261774906_25067_paint20_radial_1157_66319" cx="0" cy="0" r="1" gradientUnits="userSpaceOnUse" gradientTransform="translate(20.1781 4.84512) rotate(81.2538) scale(6.10121 5.42214)">
<stop offset="0.296" stop-color="#BAB2C4"></stop>
<stop offset="1" stop-color="#BAB2C4" stop-opacity="0"></stop>
</radialGradient>
<radialGradient id="svg-1261774906_25067_paint21_radial_1157_66319" cx="0" cy="0" r="1" gradientUnits="userSpaceOnUse" gradientTransform="translate(30.3822 17.5389) rotate(-147.031) scale(12.9206 11.4825)">
<stop stop-color="#CFCBD5"></stop>
<stop offset="1" stop-color="#BAB2C4" stop-opacity="0"></stop>
</radialGradient>
<linearGradient id="svg-1261774906_25067_paint22_linear_1157_66319" x1="nan" y1="nan" x2="nan" y2="nan" gradientUnits="userSpaceOnUse">
<stop stop-color="#F3E7FF"></stop>
<stop offset="1" stop-color="#F3E7FF" stop-opacity="0"></stop>
</linearGradient>
<linearGradient id="svg-1261774906_25067_paint23_linear_1157_66319" x1="nan" y1="nan" x2="nan" y2="nan" gradientUnits="userSpaceOnUse">
<stop stop-color="#F3E7FF"></stop>
<stop offset="1" stop-color="#F3E7FF" stop-opacity="0"></stop>
</linearGradient>
<linearGradient id="svg-1261774906_25067_paint24_linear_1157_66319" x1="nan" y1="nan" x2="nan" y2="nan" gradientUnits="userSpaceOnUse">
<stop stop-color="#F3E7FF"></stop>
<stop offset="1" stop-color="#F3E7FF" stop-opacity="0"></stop>
</linearGradient>
<radialGradient id="svg-1261774906_25067_paint0_radial_1157_66319" cx="0" cy="0" r="1" gradientUnits="userSpaceOnUse" gradientTransform="translate(31.4563 14.1219) rotate(160.534) scale(6.00745 8.52459)">
<stop stop-color="#8379B9"></stop>
<stop offset="1" stop-color="#67579A"></stop>
</radialGradient><radialGradient id="svg-1261774906_25067_paint1_radial_1157_66319" cx="0" cy="0" r="1" gradientUnits="userSpaceOnUse" gradientTransform="translate(29.3576 17.8334) rotate(159.605) scale(4.06331 3.3457)">
<stop offset="0.501" stop-color="#5D4786"></stop>
<stop offset="1" stop-color="#5D4786" stop-opacity="0"></stop>
</radialGradient><linearGradient id="svg-1261774906_25067_paint2_linear_1157_66319" x1="25.8906" y1="15.9284" x2="27.9422" y2="13.1456" gradientUnits="userSpaceOnUse">
<stop offset="0.066" stop-color="#5D4786"></stop>
<stop offset="1" stop-color="#5D4786" stop-opacity="0"></stop>
</linearGradient><linearGradient id="svg-1261774906_25067_paint3_linear_1157_66319" x1="35.4123" y1="42.1504" x2="15.881" y2="6.3113" gradientUnits="userSpaceOnUse">
<stop stop-color="#C0A6DC"></stop>
<stop offset="1" stop-color="#A591BA"></stop>
</linearGradient><linearGradient id="svg-1261774906_25067_paint4_linear_1157_66319" x1="13.6357" y1="5.43162" x2="22.3263" y2="13.3426" gradientUnits="userSpaceOnUse">
<stop stop-color="#77757A"></stop>
<stop offset="1" stop-color="#77757A" stop-opacity="0"></stop>
</linearGradient><linearGradient id="svg-1261774906_25067_paint5_linear_1157_66319" x1="12.3654" y1="5.48162" x2="14.1716" y2="7.18944" gradientUnits="userSpaceOnUse">
<stop stop-color="#8B8B8C"></stop>
<stop offset="1" stop-color="#8B8B8C" stop-opacity="0"></stop>
</linearGradient><linearGradient id="svg-1261774906_25067_paint6_linear_1157_66319" x1="31.2133" y1="18.0279" x2="42.0523" y2="42.7842" gradientUnits="userSpaceOnUse">
<stop stop-color="#C9C5D2"></stop>
<stop offset="1" stop-color="#DBD7E5"></stop>
</linearGradient><linearGradient id="svg-1261774906_25067_paint7_linear_1157_66319" x1="28.8773" y1="22.0377" x2="32.0008" y2="22.808" gradientUnits="userSpaceOnUse">
<stop stop-color="#8E6AAE"></stop>
<stop offset="1" stop-color="#827C8D"></stop>
</linearGradient><linearGradient id="svg-1261774906_25067_paint8_linear_1157_66319" x1="31.3691" y1="27.3014" x2="34.4926" y2="28.0717" gradientUnits="userSpaceOnUse">
<stop stop-color="#8E6AAE"></stop>
<stop offset="1" stop-color="#827C8D"></stop>
</linearGradient><linearGradient id="svg-1261774906_25067_paint9_linear_1157_66319" x1="33.4561" y1="32.8287" x2="36.5779" y2="33.599" gradientUnits="userSpaceOnUse">
<stop stop-color="#8E6AAE"></stop>
<stop offset="1" stop-color="#827C8D"></stop>
</linearGradient><radialGradient id="svg-1261774906_25067_paint10_radial_1157_66319" cx="0" cy="0" r="1" gradientUnits="userSpaceOnUse" gradientTransform="translate(29.5531 22.7404) scale(6.68945 3.15437)">
<stop stop-color="#CA98F6"></stop>
<stop offset="1" stop-color="#DFDEE6"></stop>
</radialGradient><radialGradient id="svg-1261774906_25067_paint11_radial_1157_66319" cx="0" cy="0" r="1" gradientUnits="userSpaceOnUse" gradientTransform="translate(29.1141 20.1264) rotate(30.8812) scale(2.90158 3.17767)">
<stop stop-color="#B9A5D0"></stop>
<stop offset="1" stop-color="#B9A5D0" stop-opacity="0"></stop>
</radialGradient><radialGradient id="svg-1261774906_25067_paint12_radial_1157_66319" cx="0" cy="0" r="1" gradientUnits="userSpaceOnUse" gradientTransform="translate(32.0662 27.9635) scale(6.68945 3.15437)">
<stop stop-color="#CA98F6"></stop>
<stop offset="1" stop-color="#DFDEE6"></stop>
</radialGradient><radialGradient id="svg-1261774906_25067_paint13_radial_1157_66319" cx="0" cy="0" r="1" gradientUnits="userSpaceOnUse" gradientTransform="translate(31.6271 25.351) rotate(30.8812) scale(2.90158 3.17767)">
<stop stop-color="#B9A5D0"></stop>
<stop offset="1" stop-color="#B9A5D0" stop-opacity="0"></stop>
</radialGradient><radialGradient id="svg-1261774906_25067_paint14_radial_1157_66319" cx="0" cy="0" r="1" gradientUnits="userSpaceOnUse" gradientTransform="translate(34.0193 33.5055) scale(6.68945 3.15437)">
<stop stop-color="#CA98F6"></stop>
<stop offset="1" stop-color="#DFDEE6"></stop>
</radialGradient><radialGradient id="svg-1261774906_25067_paint15_radial_1157_66319" cx="0" cy="0" r="1" gradientUnits="userSpaceOnUse" gradientTransform="translate(33.5803 30.893) rotate(30.8812) scale(2.90158 3.17767)">
<stop stop-color="#B9A5D0"></stop>
<stop offset="1" stop-color="#B9A5D0" stop-opacity="0"></stop>
</radialGradient><linearGradient id="svg-1261774906_25067_paint16_linear_1157_66319" x1="29.1615" y1="43.3269" x2="5.43181" y2="18.0347" gradientUnits="userSpaceOnUse">
<stop stop-color="#E5C7FF"></stop>
<stop offset="1" stop-color="#D1BEE6"></stop>
</linearGradient><linearGradient id="svg-1261774906_25067_paint17_linear_1157_66319" x1="4.65055" y1="13.4441" x2="10.9006" y2="19.6941" gradientUnits="userSpaceOnUse">
<stop stop-color="#A3A2A5"></stop>
<stop offset="1" stop-color="#BEB4CD" stop-opacity="0"></stop>
</linearGradient><linearGradient id="svg-1261774906_25067_paint18_linear_1157_66319" x1="15.213" y1="12.7566" x2="16.4677" y2="25.9395" gradientUnits="userSpaceOnUse">
<stop stop-color="#5F5796"></stop>
<stop offset="0.599" stop-color="#714699"></stop>
</linearGradient><linearGradient id="svg-1261774906_25067_paint19_linear_1157_66319" x1="9.33803" y1="9.63164" x2="10.5099" y2="10.7051" gradientUnits="userSpaceOnUse">
<stop stop-color="#73738B"></stop>
<stop offset="1" stop-color="#73738B" stop-opacity="0"></stop>
</linearGradient><radialGradient id="svg-1261774906_25067_paint20_radial_1157_66319" cx="0" cy="0" r="1" gradientUnits="userSpaceOnUse" gradientTransform="translate(20.1781 4.84512) rotate(81.2538) scale(6.10121 5.42214)">
<stop offset="0.296" stop-color="#BAB2C4"></stop>
<stop offset="1" stop-color="#BAB2C4" stop-opacity="0"></stop>
</radialGradient><radialGradient id="svg-1261774906_25067_paint21_radial_1157_66319" cx="0" cy="0" r="1" gradientUnits="userSpaceOnUse" gradientTransform="translate(30.3822 17.5389) rotate(-147.031) scale(12.9206 11.4825)">
<stop stop-color="#CFCBD5"></stop>
<stop offset="1" stop-color="#BAB2C4" stop-opacity="0"></stop>
</radialGradient><linearGradient id="svg-1261774906_25067_paint22_linear_1157_66319" x1="nan" y1="nan" x2="nan" y2="nan" gradientUnits="userSpaceOnUse">
<stop stop-color="#F3E7FF"></stop>
<stop offset="1" stop-color="#F3E7FF" stop-opacity="0"></stop>
</linearGradient><linearGradient id="svg-1261774906_25067_paint23_linear_1157_66319" x1="nan" y1="nan" x2="nan" y2="nan" gradientUnits="userSpaceOnUse">
<stop stop-color="#F3E7FF"></stop>
<stop offset="1" stop-color="#F3E7FF" stop-opacity="0"></stop>
</linearGradient><linearGradient id="svg-1261774906_25067_paint24_linear_1157_66319" x1="nan" y1="nan" x2="nan" y2="nan" gradientUnits="userSpaceOnUse">
<stop stop-color="#F3E7FF"></stop>
<stop offset="1" stop-color="#F3E7FF" stop-opacity="0"></stop>
</linearGradient></defs>
</svg></defs><use href="#svg-1261774906_25067"></use></svg>