<svg xmlns="http://www.w3.org/2000/svg" xmlns:xlink="http://www.w3.org/1999/xlink" style="width: 100%; height: 100%" viewBox="0 0 50 50" preserveAspectRatio="none" width="50" height="50"><defs><svg width="50" height="50" viewBox="0 0 50 50" fill="none" xmlns="http://www.w3.org/2000/svg" id="svg1155754344_14600">
<g clip-path="url(#svg1155754344_14600_clip0_1157_66385)" fill="none">
<path d="M24.9984 46.8719C39.5828 46.8719 46.8719 37.0781 46.8719 24.9969C46.8719 12.9188 39.5828 3.125 24.9969 3.125C10.4141 3.125 3.125 12.9188 3.125 24.9984C3.125 37.0781 10.4125 46.8719 24.9984 46.8719Z" fill="url(&quot;#svg1155754344_14600_paint0_radial_1157_66385&quot;)"></path>
<path d="M24.9984 46.8719C39.5828 46.8719 46.8719 37.0781 46.8719 24.9969C46.8719 12.9188 39.5828 3.125 24.9969 3.125C10.4141 3.125 3.125 12.9188 3.125 24.9984C3.125 37.0781 10.4125 46.8719 24.9984 46.8719Z" fill="url(&quot;#svg1155754344_14600_paint1_radial_1157_66385&quot;)"></path>
<path d="M24.9984 46.8719C39.5828 46.8719 46.8719 37.0781 46.8719 24.9969C46.8719 12.9188 39.5828 3.125 24.9969 3.125C10.4141 3.125 3.125 12.9188 3.125 24.9984C3.125 37.0781 10.4125 46.8719 24.9984 46.8719Z" fill="url(&quot;#svg1155754344_14600_paint2_radial_1157_66385&quot;)"></path>
<path d="M24.9984 46.8719C39.5828 46.8719 46.8719 37.0781 46.8719 24.9969C46.8719 12.9188 39.5828 3.125 24.9969 3.125C10.4141 3.125 3.125 12.9188 3.125 24.9984C3.125 37.0781 10.4125 46.8719 24.9984 46.8719Z" fill="url(&quot;#svg1155754344_14600_paint3_radial_1157_66385&quot;)" fill-opacity="0.6"></path>
<path d="M24.9984 46.8719C39.5828 46.8719 46.8719 37.0781 46.8719 24.9969C46.8719 12.9188 39.5828 3.125 24.9969 3.125C10.4141 3.125 3.125 12.9188 3.125 24.9984C3.125 37.0781 10.4125 46.8719 24.9984 46.8719Z" fill="url(&quot;#svg1155754344_14600_paint4_radial_1157_66385&quot;)"></path>
<path d="M24.9984 46.8719C39.5828 46.8719 46.8719 37.0781 46.8719 24.9969C46.8719 12.9188 39.5828 3.125 24.9969 3.125C10.4141 3.125 3.125 12.9188 3.125 24.9984C3.125 37.0781 10.4125 46.8719 24.9984 46.8719Z" fill="url(&quot;#svg1155754344_14600_paint5_radial_1157_66385&quot;)"></path>
<path d="M24.9984 46.8719C39.5828 46.8719 46.8719 37.0781 46.8719 24.9969C46.8719 12.9188 39.5828 3.125 24.9969 3.125C10.4141 3.125 3.125 12.9188 3.125 24.9984C3.125 37.0781 10.4125 46.8719 24.9984 46.8719Z" fill="url(&quot;#svg1155754344_14600_paint6_radial_1157_66385&quot;)"></path>
<path d="M24.9984 46.8719C39.5828 46.8719 46.8719 37.0781 46.8719 24.9969C46.8719 12.9188 39.5828 3.125 24.9969 3.125C10.4141 3.125 3.125 12.9188 3.125 24.9984C3.125 37.0781 10.4125 46.8719 24.9984 46.8719Z" fill="url(&quot;#svg1155754344_14600_paint7_radial_1157_66385&quot;)"></path>
<path fill-rule="evenodd" clip-rule="evenodd" d="M16.7969 9.375C17.1077 9.375 17.4057 9.49846 17.6255 9.71823C17.8453 9.938 17.9688 10.2361 17.9688 10.5469V11.7969C18.8511 11.977 19.6441 12.4564 20.2135 13.154C20.783 13.8516 21.0939 14.7245 21.0938 15.625V16.0156C21.0938 16.3264 20.9703 16.6245 20.7505 16.8443C20.5307 17.064 20.2327 17.1875 19.9219 17.1875C19.6111 17.1875 19.313 17.064 19.0932 16.8443C18.8735 16.6245 18.75 16.3264 18.75 16.0156V15.625C18.75 15.2106 18.5854 14.8132 18.2924 14.5201C17.9993 14.2271 17.6019 14.0625 17.1875 14.0625H16.4062C15.9918 14.0625 15.5944 14.2271 15.3014 14.5201C15.0084 14.8132 14.8438 15.2106 14.8438 15.625V15.9453C14.8439 16.3261 14.983 16.6937 15.235 16.9791C15.4871 17.2645 15.8347 17.4481 16.2125 17.4953L17.6719 17.6781C18.6165 17.7962 19.4854 18.2551 20.1155 18.9686C20.7456 19.6821 21.0935 20.6012 21.0938 21.5531V21.875C21.0939 22.7755 20.783 23.6484 20.2135 24.346C19.6441 25.0436 18.8511 25.523 17.9688 25.7031V26.9531C17.9688 27.2639 17.8453 27.562 17.6255 27.7818C17.4057 28.0015 17.1077 28.125 16.7969 28.125C16.4861 28.125 16.188 28.0015 15.9682 27.7818C15.7485 27.562 15.625 27.2639 15.625 26.9531V25.7031C14.7427 25.523 13.9497 25.0436 13.3802 24.346C12.8108 23.6484 12.4998 22.7755 12.5 21.875V21.4844C12.5 21.1736 12.6235 20.8755 12.8432 20.6557C13.063 20.436 13.3611 20.3125 13.6719 20.3125C13.9827 20.3125 14.2807 20.436 14.5005 20.6557C14.7203 20.8755 14.8438 21.1736 14.8438 21.4844V21.875C14.8438 22.2894 15.0084 22.6868 15.3014 22.9799C15.5944 23.2729 15.9918 23.4375 16.4062 23.4375H17.1875C17.6019 23.4375 17.9993 23.2729 18.2924 22.9799C18.5854 22.6868 18.75 22.2894 18.75 21.875V21.5547C18.7499 21.1739 18.6107 20.8063 18.3587 20.5209C18.1067 20.2355 17.7591 20.0519 17.3812 20.0047L15.9219 19.8219C14.9773 19.7038 14.1083 19.2449 13.4782 18.5314C12.8481 17.8179 12.5003 16.8988 12.5 15.9469V15.625C12.4998 14.7245 12.8108 13.8516 13.3802 13.154C13.9497 12.4564 14.7427 11.977 15.625 11.7969V10.5469C15.625 10.2361 15.7485 9.938 15.9682 9.71823C16.188 9.49846 16.4861 9.375 16.7969 9.375ZM33.2031 9.375C33.5139 9.375 33.812 9.49846 34.0318 9.71823C34.2515 9.938 34.375 10.2361 34.375 10.5469V11.7969C35.2573 11.977 36.0503 12.4564 36.6198 13.154C37.1892 13.8516 37.5002 14.7245 37.5 15.625V16.0156C37.5 16.3264 37.3765 16.6245 37.1568 16.8443C36.937 17.064 36.6389 17.1875 36.3281 17.1875C36.0173 17.1875 35.7193 17.064 35.4995 16.8443C35.2797 16.6245 35.1562 16.3264 35.1562 16.0156V15.625C35.1562 15.2106 34.9916 14.8132 34.6986 14.5201C34.4056 14.2271 34.0082 14.0625 33.5938 14.0625H32.8125C32.3981 14.0625 32.0007 14.2271 31.7076 14.5201C31.4146 14.8132 31.25 15.2106 31.25 15.625V15.9453C31.2501 16.3261 31.3893 16.6937 31.6413 16.9791C31.8933 17.2645 32.2409 17.4481 32.6187 17.4953L34.0781 17.6781C35.0227 17.7962 35.8917 18.2551 36.5218 18.9686C37.1519 19.6821 37.4997 20.6012 37.5 21.5531V21.875C37.5002 22.7755 37.1892 23.6484 36.6198 24.346C36.0503 25.0436 35.2573 25.523 34.375 25.7031V26.9531C34.375 27.2639 34.2515 27.562 34.0318 27.7818C33.812 28.0015 33.5139 28.125 33.2031 28.125C32.8923 28.125 32.5943 28.0015 32.3745 27.7818C32.1547 27.562 32.0312 27.2639 32.0312 26.9531V25.7031C31.1489 25.523 30.3559 25.0436 29.7865 24.346C29.217 23.6484 28.9061 22.7755 28.9062 21.875V21.4844C28.9062 21.1736 29.0297 20.8755 29.2495 20.6557C29.4693 20.436 29.7673 20.3125 30.0781 20.3125C30.3889 20.3125 30.687 20.436 30.9068 20.6557C31.1265 20.8755 31.25 21.1736 31.25 21.4844V21.875C31.25 22.2894 31.4146 22.6868 31.7076 22.9799C32.0007 23.2729 32.3981 23.4375 32.8125 23.4375H33.5938C34.0082 23.4375 34.4056 23.2729 34.6986 22.9799C34.9916 22.6868 35.1562 22.2894 35.1562 21.875V21.5547C35.1561 21.1739 35.017 20.8063 34.765 20.5209C34.5129 20.2355 34.1653 20.0519 33.7875 20.0047L32.3281 19.8219C31.3835 19.7038 30.5146 19.2449 29.8845 18.5314C29.2544 17.8179 28.9065 16.8988 28.9062 15.9469V15.625C28.9061 14.7245 29.217 13.8516 29.7865 13.154C30.3559 12.4564 31.1489 11.977 32.0312 11.7969V10.5469C32.0312 10.2361 32.1547 9.938 32.3745 9.71823C32.5943 9.49846 32.8923 9.375 33.2031 9.375Z" fill="#402A32"></path>
<path d="M25 40.625C14.0625 40.625 14.0625 29.6875 14.0625 29.6875H35.9375C35.9375 29.6875 35.9375 40.625 25 40.625Z" fill="url(&quot;#svg1155754344_14600_paint8_radial_1157_66385&quot;)"></path>
<g filter="url(#svg1155754344_14600_filter0_d_1157_66385)" fill="none">
<path d="M25.0212 48.4355C32.8337 48.4355 32.6306 38.748 32.8337 37.1074C32.99 35.7793 32.2869 35.1074 31.5212 34.6543C30.7556 34.2012 28.4587 33.7793 25.0212 33.7793C21.5837 33.7793 19.3025 34.2012 18.5212 34.6543C17.74 35.1074 17.0369 35.7793 17.2087 37.1074C17.4119 38.748 17.2087 48.4355 25.0212 48.4355Z" fill="url(&quot;#svg1155754344_14600_paint9_radial_1157_66385&quot;)"></path>
</g>
<g opacity="0.5" filter="url(#svg1155754344_14600_filter1_f_1157_66385)" fill="none">
<path d="M28.125 41.4062C29.6875 40.625 31.25 39.0625 31.25 36.7188" stroke="#71FCB2" fill="none"></path>
</g>
<path d="M35.7188 31.9219C35.8594 31.2031 35.9375 30.4531 35.9375 29.6875H14.0625C14.0625 30.4531 14.1406 31.1875 14.2813 31.9219H35.7188Z" fill="url(&quot;#svg1155754344_14600_paint10_linear_1157_66385&quot;)"></path>
<path fill-rule="evenodd" clip-rule="evenodd" d="M24.7626 48.4322C24.2596 48.3615 23.7748 48.1949 23.3345 47.9416C20.6782 46.4072 20.3251 42.051 22.5439 38.2072C23.7892 36.051 25.5798 34.5135 27.3798 33.8525C29.5126 33.9932 30.9485 34.3135 31.522 34.6541C32.2876 35.1072 32.9907 35.7791 32.8345 37.1072C32.8107 37.3406 32.7924 37.5745 32.7798 37.8088C32.6501 39.7213 32.3564 44.1103 29.822 46.6088C29.0689 47.2557 28.2595 47.7494 27.447 48.0666C26.5813 48.3481 25.6721 48.472 24.7626 48.4322Z" fill="url(&quot;#svg1155754344_14600_paint11_radial_1157_66385&quot;)"></path>
<path fill-rule="evenodd" clip-rule="evenodd" d="M25.0014 35.1562C25.2086 35.1562 25.4073 35.2386 25.5538 35.3851C25.7003 35.5316 25.7826 35.7303 25.7826 35.9375V36.7188C25.7825 36.7622 25.7789 36.8056 25.7717 36.8484C26.2314 37.0084 26.6299 37.3075 26.9118 37.7043C27.1938 38.1011 27.3452 38.5758 27.3451 39.0625C27.3451 39.2697 27.2628 39.4684 27.1163 39.6149C26.9698 39.7614 26.7711 39.8438 26.5639 39.8438C26.3567 39.8438 26.1579 39.7614 26.0114 39.6149C25.8649 39.4684 25.7826 39.2697 25.7826 39.0625C25.7826 38.8553 25.7003 38.6566 25.5538 38.5101C25.4073 38.3636 25.2086 38.2812 25.0014 38.2812H24.8873C24.7371 38.2815 24.5914 38.3325 24.4737 38.4259C24.3561 38.5193 24.2734 38.6497 24.239 38.7959C24.2047 38.9421 24.2207 39.0957 24.2845 39.2317C24.3482 39.3677 24.456 39.4782 24.5904 39.5453L26.1123 40.3078C26.5107 40.5066 26.8404 40.8201 27.0591 41.2079C27.2777 41.5957 27.3752 42.0402 27.3391 42.4839C27.303 42.9276 27.1348 43.3504 26.8563 43.6978C26.5778 44.0451 26.2016 44.3011 25.7764 44.4328C25.781 44.4641 25.7826 44.4969 25.7826 44.5312V45.3125C25.7826 45.5197 25.7003 45.7184 25.5538 45.8649C25.4073 46.0114 25.2086 46.0938 25.0014 46.0938C24.7942 46.0938 24.5954 46.0114 24.4489 45.8649C24.3024 45.7184 24.2201 45.5197 24.2201 45.3125V44.5312C24.2201 44.4875 24.2232 44.4437 24.231 44.4016C23.7713 44.2416 23.3729 43.9425 23.0909 43.5457C22.8089 43.1489 22.6575 42.6742 22.6576 42.1875C22.6576 41.9803 22.7399 41.7816 22.8864 41.6351C23.0329 41.4886 23.2317 41.4062 23.4389 41.4062C23.6461 41.4062 23.8448 41.4886 23.9913 41.6351C24.1378 41.7816 24.2201 41.9803 24.2201 42.1875C24.2201 42.3947 24.3024 42.5934 24.4489 42.7399C24.5954 42.8864 24.7942 42.9688 25.0014 42.9688H25.1154C25.2656 42.9685 25.4114 42.9175 25.529 42.8241C25.6466 42.7307 25.7293 42.6003 25.7637 42.4541C25.798 42.3079 25.782 42.1543 25.7182 42.0183C25.6545 41.8823 25.5467 41.7718 25.4123 41.7047L23.8904 40.9422C23.492 40.7434 23.1623 40.4299 22.9436 40.0421C22.725 39.6543 22.6275 39.2098 22.6636 38.7661C22.6997 38.3224 22.8679 37.8996 23.1464 37.5522C23.4249 37.2049 23.8011 36.9489 24.2264 36.8172C24.2223 36.7845 24.2202 36.7517 24.2201 36.7188V35.9375C24.2201 35.7303 24.3024 35.5316 24.4489 35.3851C24.5954 35.2386 24.7942 35.1562 25.0014 35.1562Z" fill="#402A32"></path>
</g>
<defs>
<filter id="svg1155754344_14600_filter0_d_1157_66385" x="16.1826" y="32.7793" width="19.6729" height="18.6562" filterUnits="userSpaceOnUse" color-interpolation-filters="sRGB">
<feFlood flood-opacity="0" result="BackgroundImageFix"></feFlood>
<feColorMatrix in="SourceAlpha" type="matrix" values="0 0 0 0 0 0 0 0 0 0 0 0 0 0 0 0 0 0 127 0" result="hardAlpha"></feColorMatrix>
<feOffset dx="1" dy="1"></feOffset>
<feGaussianBlur stdDeviation="1"></feGaussianBlur>
<feComposite in2="hardAlpha" operator="out"></feComposite>
<feColorMatrix type="matrix" values="0 0 0 0 0 0 0 0 0 0 0 0 0 0 0 0 0 0 0.24 0"></feColorMatrix>
<feBlend mode="normal" in2="BackgroundImageFix" result="effect1_dropShadow_1157_66385"></feBlend>
<feBlend mode="normal" in="SourceGraphic" in2="effect1_dropShadow_1157_66385" result="shape"></feBlend>
</filter>
<filter id="svg1155754344_14600_filter1_f_1157_66385" x="26.9014" y="35.7188" width="5.84863" height="7.13477" filterUnits="userSpaceOnUse" color-interpolation-filters="sRGB">
<feFlood flood-opacity="0" result="BackgroundImageFix"></feFlood>
<feBlend mode="normal" in="SourceGraphic" in2="BackgroundImageFix" result="shape"></feBlend>
<feGaussianBlur stdDeviation="0.5" result="effect1_foregroundBlur_1157_66385"></feGaussianBlur>
</filter>
<radialGradient id="svg1155754344_14600_paint0_radial_1157_66385" cx="0" cy="0" r="1" gradientUnits="userSpaceOnUse" gradientTransform="translate(39.844 14.0619) rotate(132.839) scale(58.5989)">
<stop stop-color="#FFF478"></stop>
<stop offset="0.475" stop-color="#FFB02E"></stop>
<stop offset="1" stop-color="#F70A8D"></stop>
</radialGradient>
<radialGradient id="svg1155754344_14600_paint1_radial_1157_66385" cx="0" cy="0" r="1" gradientUnits="userSpaceOnUse" gradientTransform="translate(39.8419 14.0635) rotate(131.878) scale(60.8574)">
<stop stop-color="#FFF478"></stop>
<stop offset="0.475" stop-color="#FFB02E"></stop>
<stop offset="1" stop-color="#F70A8D"></stop>
</radialGradient>
<radialGradient id="svg1155754344_14600_paint2_radial_1157_66385" cx="0" cy="0" r="1" gradientUnits="userSpaceOnUse" gradientTransform="translate(24.9989 19.5308) rotate(101.31) scale(27.8853 35.7158)">
<stop offset="0.788" stop-color="#F59639" stop-opacity="0"></stop>
<stop offset="0.973" stop-color="#FF7DCE"></stop>
</radialGradient>
<radialGradient id="svg1155754344_14600_paint3_radial_1157_66385" cx="0" cy="0" r="1" gradientUnits="userSpaceOnUse" gradientTransform="translate(28.125 21.875) rotate(135) scale(64.0816)">
<stop offset="0.315" stop-opacity="0"></stop>
<stop offset="1"></stop>
</radialGradient>
<radialGradient id="svg1155754344_14600_paint4_radial_1157_66385" cx="0" cy="0" r="1" gradientUnits="userSpaceOnUse" gradientTransform="translate(24.9999 26.5637) rotate(77.692) scale(43.9795)">
<stop offset="0.508" stop-color="#7D6133" stop-opacity="0"></stop>
<stop offset="1" stop-color="#715B32"></stop>
</radialGradient>
<radialGradient id="svg1155754344_14600_paint5_radial_1157_66385" cx="0" cy="0" r="1" gradientUnits="userSpaceOnUse" gradientTransform="translate(25.7813 25.7813) rotate(55.713) scale(20.8023 15.0786)">
<stop stop-color="#FFB849"></stop>
<stop offset="1" stop-color="#FFB847" stop-opacity="0"></stop>
</radialGradient>
<radialGradient id="svg1155754344_14600_paint6_radial_1157_66385" cx="0" cy="0" r="1" gradientUnits="userSpaceOnUse" gradientTransform="translate(32.0313 28.125) rotate(9.86582) scale(18.2384)">
<stop stop-color="#FFA64B"></stop>
<stop offset="0.9" stop-color="#FFAE46" stop-opacity="0"></stop>
</radialGradient>
<radialGradient id="svg1155754344_14600_paint7_radial_1157_66385" cx="0" cy="0" r="1" gradientUnits="userSpaceOnUse" gradientTransform="translate(27.3438 23.4379) rotate(43.971) scale(92.2702)">
<stop offset="0.185" stop-opacity="0"></stop>
<stop offset="1" stop-opacity="0.4"></stop>
</radialGradient>
<radialGradient id="svg1155754344_14600_paint8_radial_1157_66385" cx="0" cy="0" r="1" gradientUnits="userSpaceOnUse" gradientTransform="translate(25 43.0563) rotate(-90) scale(13.3681 26.7361)">
<stop stop-color="#F70A8D"></stop>
<stop offset="1" stop-color="#89029C"></stop>
</radialGradient>
<radialGradient id="svg1155754344_14600_paint9_radial_1157_66385" cx="0" cy="0" r="1" gradientUnits="userSpaceOnUse" gradientTransform="translate(25.7791 47.6543) rotate(-92.8624) scale(15.6445 27.1969)">
<stop stop-color="#56B7B8"></stop>
<stop offset="0.392" stop-color="#50F099"></stop>
<stop offset="0.675" stop-color="#45CD7F"></stop>
<stop offset="0.832" stop-color="#3BA66E"></stop>
<stop offset="0.886" stop-color="#477063"></stop>
</radialGradient>
<linearGradient id="svg1155754344_14600_paint10_linear_1157_66385" x1="25" y1="29.6875" x2="25" y2="31.9219" gradientUnits="userSpaceOnUse">
<stop stop-color="#ECCDFF"></stop>
<stop offset="1" stop-color="white"></stop>
</linearGradient>
<radialGradient id="svg1155754344_14600_paint11_radial_1157_66385" cx="0" cy="0" r="1" gradientUnits="userSpaceOnUse" gradientTransform="translate(29.686 41.4041) rotate(113.962) scale(7.69442 3.41066)">
<stop stop-color="#72FDB3"></stop>
<stop offset="0.603" stop-color="#72FDB3" stop-opacity="0"></stop>
</radialGradient>
<clipPath id="svg1155754344_14600_clip0_1157_66385">
<rect width="50" height="50" fill="white"></rect>
</clipPath>
<radialGradient id="svg1155754344_14600_paint0_radial_1157_66385" cx="0" cy="0" r="1" gradientUnits="userSpaceOnUse" gradientTransform="translate(39.844 14.0619) rotate(132.839) scale(58.5989)">
<stop stop-color="#FFF478"></stop>
<stop offset="0.475" stop-color="#FFB02E"></stop>
<stop offset="1" stop-color="#F70A8D"></stop>
</radialGradient><radialGradient id="svg1155754344_14600_paint1_radial_1157_66385" cx="0" cy="0" r="1" gradientUnits="userSpaceOnUse" gradientTransform="translate(39.8419 14.0635) rotate(131.878) scale(60.8574)">
<stop stop-color="#FFF478"></stop>
<stop offset="0.475" stop-color="#FFB02E"></stop>
<stop offset="1" stop-color="#F70A8D"></stop>
</radialGradient><radialGradient id="svg1155754344_14600_paint2_radial_1157_66385" cx="0" cy="0" r="1" gradientUnits="userSpaceOnUse" gradientTransform="translate(24.9989 19.5308) rotate(101.31) scale(27.8853 35.7158)">
<stop offset="0.788" stop-color="#F59639" stop-opacity="0"></stop>
<stop offset="0.973" stop-color="#FF7DCE"></stop>
</radialGradient><radialGradient id="svg1155754344_14600_paint3_radial_1157_66385" cx="0" cy="0" r="1" gradientUnits="userSpaceOnUse" gradientTransform="translate(28.125 21.875) rotate(135) scale(64.0816)">
<stop offset="0.315" stop-opacity="0"></stop>
<stop offset="1"></stop>
</radialGradient><radialGradient id="svg1155754344_14600_paint4_radial_1157_66385" cx="0" cy="0" r="1" gradientUnits="userSpaceOnUse" gradientTransform="translate(24.9999 26.5637) rotate(77.692) scale(43.9795)">
<stop offset="0.508" stop-color="#7D6133" stop-opacity="0"></stop>
<stop offset="1" stop-color="#715B32"></stop>
</radialGradient><radialGradient id="svg1155754344_14600_paint5_radial_1157_66385" cx="0" cy="0" r="1" gradientUnits="userSpaceOnUse" gradientTransform="translate(25.7813 25.7813) rotate(55.713) scale(20.8023 15.0786)">
<stop stop-color="#FFB849"></stop>
<stop offset="1" stop-color="#FFB847" stop-opacity="0"></stop>
</radialGradient><radialGradient id="svg1155754344_14600_paint6_radial_1157_66385" cx="0" cy="0" r="1" gradientUnits="userSpaceOnUse" gradientTransform="translate(32.0313 28.125) rotate(9.86582) scale(18.2384)">
<stop stop-color="#FFA64B"></stop>
<stop offset="0.9" stop-color="#FFAE46" stop-opacity="0"></stop>
</radialGradient><radialGradient id="svg1155754344_14600_paint7_radial_1157_66385" cx="0" cy="0" r="1" gradientUnits="userSpaceOnUse" gradientTransform="translate(27.3438 23.4379) rotate(43.971) scale(92.2702)">
<stop offset="0.185" stop-opacity="0"></stop>
<stop offset="1" stop-opacity="0.4"></stop>
</radialGradient><radialGradient id="svg1155754344_14600_paint8_radial_1157_66385" cx="0" cy="0" r="1" gradientUnits="userSpaceOnUse" gradientTransform="translate(25 43.0563) rotate(-90) scale(13.3681 26.7361)">
<stop stop-color="#F70A8D"></stop>
<stop offset="1" stop-color="#89029C"></stop>
</radialGradient><radialGradient id="svg1155754344_14600_paint9_radial_1157_66385" cx="0" cy="0" r="1" gradientUnits="userSpaceOnUse" gradientTransform="translate(25.7791 47.6543) rotate(-92.8624) scale(15.6445 27.1969)">
<stop stop-color="#56B7B8"></stop>
<stop offset="0.392" stop-color="#50F099"></stop>
<stop offset="0.675" stop-color="#45CD7F"></stop>
<stop offset="0.832" stop-color="#3BA66E"></stop>
<stop offset="0.886" stop-color="#477063"></stop>
</radialGradient><linearGradient id="svg1155754344_14600_paint10_linear_1157_66385" x1="25" y1="29.6875" x2="25" y2="31.9219" gradientUnits="userSpaceOnUse">
<stop stop-color="#ECCDFF"></stop>
<stop offset="1" stop-color="white"></stop>
</linearGradient><radialGradient id="svg1155754344_14600_paint11_radial_1157_66385" cx="0" cy="0" r="1" gradientUnits="userSpaceOnUse" gradientTransform="translate(29.686 41.4041) rotate(113.962) scale(7.69442 3.41066)">
<stop stop-color="#72FDB3"></stop>
<stop offset="0.603" stop-color="#72FDB3" stop-opacity="0"></stop>
</radialGradient></defs>
</svg></defs><use href="#svg1155754344_14600"></use></svg>