<svg xmlns:xlink="http://www.w3.org/1999/xlink" width="45" height="44" viewBox="0 0 45 44" fill="none" xmlns="http://www.w3.org/2000/svg" id="svg-1150539487_1011">
<g clip-path="url(#svg-1150539487_1011_clip0_1085_72608)" fill="none">
<path fill-rule="evenodd" clip-rule="evenodd" d="M36.7579 8.1216C37.2109 7.93092 37.7068 7.86515 38.1939 7.93115C38.681 7.99715 39.1415 8.19249 39.5275 8.49686C39.9135 8.80122 40.2108 9.20348 40.3886 9.66175C40.5663 10.12 40.618 10.6176 40.5382 11.1026L36.3802 36.3238C35.9769 38.7566 33.3076 40.1518 31.0764 38.9399C29.2101 37.9261 26.4381 36.3641 23.9447 34.7343C22.6981 33.9184 18.8792 31.3059 19.3486 29.4469C19.7519 27.8574 26.1686 21.8844 29.8352 18.3333C31.2744 16.9381 30.6181 16.1333 28.9186 17.4166C24.6964 20.6029 17.9222 25.4484 15.6819 26.8124C13.7056 28.0151 12.6752 28.2204 11.4432 28.0151C9.19556 27.6411 7.11106 27.0618 5.40972 26.3559C3.11072 25.4026 3.22256 22.2419 5.40789 21.3216L36.7579 8.1216Z" fill="#FFFFFF"></path>
</g>
<defs>
<clipPath id="svg-1150539487_1011_clip0_1085_72608">
<rect width="44" height="44" fill="white" transform="translate(0.5)"></rect>
</clipPath>
</defs>
</svg>