<svg xmlns:xlink="http://www.w3.org/1999/xlink" width="45" height="44" viewBox="0 0 45 44" fill="none" xmlns="http://www.w3.org/2000/svg" id="svg-777793881_1309">
<path d="M43.8464 9.05318C42.3156 9.73151 40.6711 10.1898 38.9422 10.397C40.7261 9.32963 42.0606 7.6497 42.6969 5.67068C41.021 6.66616 39.1867 7.36687 37.2739 7.74235C35.9876 6.36893 34.2839 5.45861 32.4272 5.15272C30.5705 4.84682 28.6648 5.16246 27.0059 6.05064C25.3469 6.93882 24.0277 8.34984 23.2529 10.0646C22.4781 11.7794 22.2911 13.7021 22.7209 15.534C19.325 15.3635 16.0029 14.4809 12.9702 12.9433C9.93749 11.4058 7.26196 9.24781 5.11725 6.60935C4.38392 7.87435 3.96225 9.34101 3.96225 10.903C3.96143 12.3092 4.30771 13.6938 4.97036 14.934C5.63301 16.1743 6.59155 17.2317 7.76092 18.0127C6.40476 17.9695 5.07852 17.6031 3.89258 16.9438V17.0538C3.89245 19.026 4.57464 20.9375 5.82342 22.464C7.07219 23.9905 8.81063 25.0379 10.7438 25.4285C9.48569 25.769 8.1667 25.8191 6.88642 25.5752C7.43183 27.2721 8.49424 28.7561 9.92492 29.8192C11.3556 30.8824 13.0829 31.4715 14.8651 31.5042C11.8398 33.8791 8.10354 35.1673 4.25742 35.1617C3.57612 35.1619 2.89539 35.1221 2.21875 35.0425C6.12279 37.5527 10.6674 38.8848 15.3088 38.8797C31.0204 38.8797 39.6096 25.8667 39.6096 14.5807C39.6096 14.214 39.6004 13.8437 39.5839 13.477C41.2546 12.2688 42.6968 10.7727 43.8428 9.05868L43.8464 9.05318Z" fill="#FFFFFF"></path>
</svg>